<?xml version="1.0" encoding="UTF-8" standalone="no"?>
<!-- Created with Inkscape (http://www.inkscape.org/) -->

<svg
   xmlns:dc="http://purl.org/dc/elements/1.1/"
   xmlns:cc="http://creativecommons.org/ns#"
   xmlns:rdf="http://www.w3.org/1999/02/22-rdf-syntax-ns#"
   xmlns:svg="http://www.w3.org/2000/svg"
   xmlns="http://www.w3.org/2000/svg"
   xmlns:sodipodi="http://sodipodi.sourceforge.net/DTD/sodipodi-0.dtd"
   xmlns:inkscape="http://www.inkscape.org/namespaces/inkscape"
   width="2125.9841"
   height="1062.9921"
   id="svg13214"
   version="1.1"
   inkscape:version="0.47+devel r9330 custom"
   sodipodi:docname="New document 33">
  <defs
     id="defs13216" />
  <sodipodi:namedview
     id="base"
     pagecolor="#ffffff"
     bordercolor="#666666"
     borderopacity="1.0"
     inkscape:pageopacity="0.0"
     inkscape:pageshadow="2"
     inkscape:zoom="0.35753554"
     inkscape:cx="498.88679"
     inkscape:cy="420.44396"
     inkscape:document-units="px"
     inkscape:current-layer="layer1"
     showgrid="false"
     units="cm"
     inkscape:window-width="1280"
     inkscape:window-height="725"
     inkscape:window-x="0"
     inkscape:window-y="25"
     inkscape:window-maximized="1" />
  <metadata
     id="metadata13219">
    <rdf:RDF>
      <cc:Work
         rdf:about="">
        <dc:format>image/svg+xml</dc:format>
        <dc:type
           rdf:resource="http://purl.org/dc/dcmitype/StillImage" />
        <dc:title></dc:title>
      </cc:Work>
    </rdf:RDF>
  </metadata>
  <g
     inkscape:label="Layer 1"
     inkscape:groupmode="layer"
     id="layer1"
     transform="translate(694.53447,-32.192619)">
    <path
       inkscape:connector-curvature="0"
       d="m -253.32063,608.4558 c 4.79,-2.0156 10.307,0.2336 12.323,5.0237 2.016,4.7902 -0.233,10.3075 -5.024,12.3231 -4.79,2.0157 -10.307,-0.2334 -12.323,-5.0236 -2.016,-4.7902 0.234,-10.3075 5.024,-12.3232 z m 10.951,-250.2658 c 4.79,-2.0156 10.308,0.2335 12.323,5.0237 2.016,4.7902 -0.233,10.3075 -5.023,12.3231 -4.791,2.0157 -10.308,-0.2334 -12.324,-5.0236 -2.015,-4.7902 0.234,-10.3075 5.024,-12.3232 z m 95.664,-47.3268 c 4.79,-2.0156 10.307,0.2336 12.323,5.0238 2.015,4.7901 -0.234,10.3074 -5.024,12.323 -4.79,2.0158 -10.308,-0.2334 -12.323,-5.0236 -2.016,-4.7902 0.233,-10.3074 5.024,-12.3232 z m 229.826003,546.177 c 4.791,-2.0157 10.308,0.2335 12.323,5.0237 2.016,4.7902 -0.233,10.3074 -5.023,12.3231 -4.791,2.0157 -10.308001,-0.2334 -12.324001,-5.0236 -2.015,-4.7902 0.234,-10.3075 5.024001,-12.3232 z m -389.389003,-292.0054 56.65,134.2226 411.875,271.47199 -296.064,-703.59019 -154.228,64.864 40.716,95.6318 -58.949,137.4001 z"
       style="fill:#000000;fill-opacity:1;stroke:none"
       id="path11886-3-3" />
    <path
       inkscape:connector-curvature="0"
       d="m -267.49591,1014.6967 c 0,5.197 -4.213,9.41 -9.41,9.41 -5.197,0 -9.41,-4.213 -9.41,-9.41 0,-5.1971 4.213,-9.4102 9.41,-9.4102 5.197,0 9.41,4.2131 9.41,9.4102 z m 332.342999,0 c 0,5.197 -4.213,9.41 -9.41,9.41 -5.197,0 -9.41,-4.213 -9.41,-9.41 0,-5.1971 4.213,-9.4102 9.41,-9.4102 5.197,0 9.41,4.2131 9.41,9.4102 z m -670.458999,0 c 0,5.197 -4.213,9.41 -9.41,9.41 -5.197,0 -9.41,-4.213 -9.41,-9.41 0,-5.1971 4.213,-9.4102 9.41,-9.4102 5.197,0 9.41,4.2131 9.41,9.4102 z m 0,-105.23743 c 0,5.197 -4.213,9.41 -9.41,9.41 -5.197,0 -9.41,-4.213 -9.41,-9.41 0,-5.1971 4.213,-9.4102 9.41,-9.4102 5.197,0 9.41,4.2131 9.41,9.4102 z m 312.326,-106.3837 c 0,5.197 -4.213,9.41 -9.41,9.41 -5.197,0 -9.41,-4.213 -9.41,-9.41 0,-5.1971 4.213,-9.4102 9.41,-9.4102 5.197,0 9.41,4.2131 9.41,9.4102 z m -228.567,106.3837 c 0,5.197 -4.213,9.41 -9.41,9.41 -5.197,0 -9.41,-4.213 -9.41,-9.41 0,-5.1971 4.213,-9.4102 9.41,-9.4102 5.197,0 9.41,4.2131 9.41,9.4102 z m 144.131,-137.6111 -103.813,107.6564 -167.719,-0.3439 0,168.03123 824.75,0 -407.125,-275.15623 -146.093,-0.1875 z"
       style="fill:#000000;fill-opacity:1;stroke:none"
       id="path11735-4-6" />
    <path
       inkscape:connector-curvature="0"
       d="m -623.5922,511.32481 c 0,5.197 -4.213,9.41 -9.41,9.41 -5.197,0 -9.41,-4.213 -9.41,-9.41 0,-5.1971 4.213,-9.4102 9.41,-9.4102 5.197,0 9.41,4.2131 9.41,9.4102 z m 0,288.0499 c 0,5.197 -4.213,9.41 -9.41,9.41 -5.197,0 -9.41,-4.213 -9.41,-9.41 0,-5.1971 4.213,-9.4102 9.41,-9.4102 5.197,0 9.41,4.2131 9.41,9.4102 z m 88.422,5.82 c 0,5.197 -4.213,9.41 -9.41,9.41 -5.197,0 -9.41,-4.213 -9.41,-9.41 0,-5.1971 4.213,-9.4102 9.41,-9.4102 5.197,0 9.41,4.2131 9.41,9.4102 z m 85.317,-60.0384 c 0,5.197 -4.213,9.41 -9.41,9.41 -5.197,0 -9.41,-4.213 -9.41,-9.41 0,-5.1971 4.213,-9.4102 9.41,-9.4102 5.197,0 9.41,4.2131 9.41,9.4102 z m -212.718,93.3885 167.875,0.375 103.813,-107.625 146.094,0.1873 -417.782,-284.9373 0,392 z"
       style="fill:#000000;fill-opacity:1;stroke:none"
       id="path11639-9-8" />
    <path
       id="path13337"
       style="fill:#000000;fill-opacity:1;stroke:none"
       d="m -574.15426,422.93655 c 0,5.197 -4.213,9.41 -9.41,9.41 -5.197,0 -9.41,-4.213 -9.41,-9.41 0,-5.1971 4.213,-9.4102 9.41,-9.4102 5.197,0 9.41,4.2131 9.41,9.4102 z m 227.96321,-88.45353 c 4.79,-2.0157 10.307,0.2335 12.323,5.0237 2.015,4.7902 -0.234,10.3074 -5.024,12.3231 -4.79,2.0157 -10.308,-0.2335 -12.323,-5.0237 -2.016,-4.7901 0.233,-10.3074 5.024,-12.3231 z m -22.391,102.0583 c 4.79,-2.0156 10.307,0.2336 12.323,5.0237 2.015,4.7902 -0.234,10.3075 -5.024,12.3231 -4.79,2.0157 -10.308,-0.2334 -12.323,-5.0236 -2.016,-4.7902 0.233,-10.3075 5.024,-12.3232 z m -281.176,-20.5714 357.36,233.6357 -56.827,-134.5719 58.933,-137.4281 -40.661,-95.7956 -318.813,134.1542 0,4e-4 0,2e-4 0,0 0,0 0,0 0,0.01 0,0 0,0 0,0 z" />
    <path
       d="m -597.11395,331.68948 c 3.91613,-3.41578 4.3219,-9.36 0.90644,-13.27667 -3.41645,-3.91654 -9.36018,-4.32248 -13.27726,-0.90634 -3.9161,3.41587 -4.32282,9.36043 -0.90639,13.27685 3.41548,3.91679 9.36019,4.32247 13.27721,0.90616 z m 440.72749,-181.96415 c 3.91614,-3.41578 4.32288,-9.36025 0.90642,-13.27677 -3.41646,-3.91652 -9.36017,-4.32238 -13.27725,-0.90625 -3.91614,3.41578 -4.32281,9.36042 -0.90638,13.27686 3.41644,3.91653 9.36016,4.32236 13.27721,0.90616 z M -346.8402,103.97019 c 3.91614,-3.41579 4.32286,-9.360327 0.90642,-13.276757 -3.41645,-3.91654 -9.36015,-4.32238 -13.27628,-0.90662 -3.91707,3.41623 -4.32282,9.36044 -0.90734,13.277217 3.41646,3.91653 9.36016,4.32238 13.2772,0.90616 z m -281.31655,184.3238 c -10.107,8.95641 -18.7973,25.01914 -16.7976,39.18248 2.16912,15.36678 12.9422,29.66007 24.75697,33.14414 11.81387,3.48459 20.2058,5.11895 36.00458,-1.6401 155.98306,-66.73177 234.00159,-98.55252 377.8333,-160.50383 18.93502,-8.15601 40.48865,-16.4955 60.55624,-26.18301 5.17042,-2.49609 8.95721,-5.0037 14.22947,-9.70642 5.27327,-4.70286 6.48716,-6.68379 9.03365,-11.95795 2.54738,-5.27459 4.39524,-15.83488 1.82424,-23.12825 -2.91107,-8.25746 -10.72071,-14.32478 -18.03254,-19.09887 -7.31274,-4.77376 -16.13347,-6.78115 -24.61149,-8.778447 0,0 -166.22861,-42.10716 -179.94434,-42.39095 -16.16579,-0.33376 -27.54782,2.40802 -45.25059,17.47109 C -501.12763,176.47367 -517.94932,190.63481 -628.15674,288.29397 z"
       style="fill:#000000;fill-opacity:1;fill-rule:evenodd;stroke:none"
       id="path12986-8"
       inkscape:connector-curvature="0" />
    <path
       id="path11953"
       style="fill:#000000;fill-opacity:1;fill-rule:nonzero;stroke:none"
       d="m 126.59312,408.62536 c -0.448,-5.1779 -5.009,-9.0121 -10.187,-8.5637 -5.177,0.4514 -9.011,5.0093 -8.564,10.1861 0.449,5.1779 5.009,9.0119 10.187,8.5646 5.178,-0.4513 9.012,-5.0092 8.564,-10.187 z m -168.855006,-99.2666 c -0.45,-5.1779 -5.009,-9.012 -10.187,-8.5636 -5.178,0.4513 -9.011,5.0082 -8.564,10.1861 0.449,5.1778 5.009,9.0119 10.187,8.5636 5.178,-0.4514 9.012,-5.0083 8.564,-10.1861 z m 190.939006,436.9145 c -0.448,-5.1778 -5.008,-9.012 -10.186,-8.5636 -5.177,0.4513 -9.012,5.0083 -8.563,10.1861 0.448,5.1779 5.008,9.012 10.186,8.5636 5.177,-0.4514 9.011,-5.0082 8.563,-10.1861 z m 33.718,-8.0673 c 1.059,13.4635 -3.836,31.0572 -15.106,39.8644 -12.229,9.5563 -29.905,12.3674 -40.828,6.6744 -10.924,-5.6931 -18.098,-10.3426 -24.778,-26.1738 C 35.722114,602.25986 1.651114,525.19806 -58.880886,380.76306 c -7.969,-19.0151 -17.696,-39.9803 -25.416004,-60.8833 -1.989,-5.3854 -2.974,-9.8186 -3.505,-16.8646 -0.53,-7.045 -0.03,-9.3135 1.798,-14.8774 1.828,-5.5648 7.828004,-14.4499 14.742004,-17.9145 7.827,-3.9234 17.66,-2.871 26.238,-1.2308 8.577,1.6392 16.32,6.3179 23.809,10.7646 0,0 148.885006,85.077 158.956006,94.3939 11.868,10.9809 18.158,20.8553 20.445,43.9868 10.39,151.3988 12.669,173.27 24.209,320.0682 z"
       inkscape:connector-curvature="0" />
    <path
       inkscape:connector-curvature="0"
       id="path11983"
       style="fill:#000000;fill-opacity:1;stroke:none"
       d="m 625.65621,655.11838 c 0.0122,-5.19583 4.23158,-9.40002 9.429,-9.39051 5.19684,0.0115 9.40081,4.23412 9.3902,9.43145 -0.0122,5.19692 -4.23167,9.39998 -9.4292,9.39045 -5.19694,-0.0115 -9.4014,-4.23221 -9.39,-9.43139 z m 149.62016,0.30912 c 0.0117,-5.19794 4.2321,-9.4009 9.42926,-9.3904 5.19695,0.002 9.40131,4.23217 9.39084,9.42848 -0.0116,5.1969 -4.23242,9.40185 -9.42956,9.39135 -5.19686,-0.002 -9.4011,-4.23317 -9.39054,-9.42943 z m -92.78184,-0.19118 c 0.0122,-5.19583 4.23262,-9.40182 9.42954,-9.39139 5.19704,0.0115 9.4012,4.23321 9.39052,9.43051 -0.0116,5.19689 -4.23211,9.40089 -9.42907,9.39047 -5.19737,-0.002 -9.40129,-4.23322 -9.39099,-9.42959 z m -56.17932,-321.0895 c 0.0122,-5.19687 4.23247,-9.40182 9.42891,-9.38945 5.19692,0.002 9.4017,4.23125 9.39119,9.42751 -0.0122,5.19798 -4.23288,9.40277 -9.42951,9.39139 -5.19691,-0.002 -9.40149,-4.23224 -9.39059,-9.42945 z m 149.62044,0.30814 c 0.0116,-5.19798 4.23249,-9.40181 9.42906,-9.39047 5.19763,9.1e-4 9.40179,4.23128 9.39103,9.42855 -0.0117,5.19687 -4.23222,9.40193 -9.42955,9.39135 -5.19695,-0.002 -9.40112,-4.23209 -9.39054,-9.42943 z m -92.78163,-0.1911 c 0.0122,-5.19793 4.23212,-9.40089 9.42921,-9.39042 5.19732,0.002 9.40111,4.23317 9.39093,9.42849 -0.0116,5.19798 -4.23248,9.40183 -9.42954,9.39136 -5.19687,-0.002 -9.4015,-4.23221 -9.3906,-9.42943 z m 143.75666,321.26816 c 0.0117,-5.19579 4.23181,-9.39995 9.42886,-9.38948 5.19695,0.002 9.40141,4.23222 9.39085,9.42847 -0.012,5.1989 -4.23244,9.40293 -9.42948,9.39139 -5.19694,-0.002 -9.40113,-4.2321 -9.39023,-9.43038 z m 0.65886,-320.97054 c 0.0116,-5.19799 4.2325,-9.40181 9.42917,-9.39042 5.19686,0.002 9.40178,4.23128 9.39093,9.42849 -0.0117,5.19579 -4.2325,9.40182 -9.42956,9.39135 -5.19637,-0.0123 -9.40119,-4.23321 -9.39054,-9.42942 z m -220.49001,354.26539 802.84217,1.64975 0.7761,-377.81181 -802.84215,-1.64974 -0.77612,377.8118 z m 760.47857,-32.18275 c 0.012,-5.19582 4.2324,-9.40183 9.4294,-9.3914 5.197,0.002 9.4011,4.23317 9.3906,9.43055 -0.012,5.19686 -4.2325,9.40182 -9.4292,9.39039 -5.1971,-0.0115 -9.4017,-4.23124 -9.3908,-9.42954 z m 0.6597,-320.9734 c 0.012,-5.19691 4.2322,-9.40088 9.4292,-9.3904 5.197,0.002 9.4012,4.23317 9.3909,9.42846 -0.012,5.1989 -4.2325,9.40182 -9.4295,9.39141 -5.1972,-0.002 -9.4013,-4.23222 -9.3906,-9.42947 z" />
    <path
       inkscape:connector-curvature="0"
       d="m 203.56181,401.32949 -2.00989,668.21591 377.81089,1.1364 2.00989,-668.21592 -377.81089,-1.13639 z m 342.1302,646.76191 c -5.19698,-0.016 -9.39729,-4.2413 -9.38165,-9.4383 0.0156,-5.1969 4.24128,-9.3972 9.43826,-9.3816 5.19707,0.016 9.39748,4.2413 9.38185,9.4382 -0.0156,5.197 -4.24138,9.3973 -9.43846,9.3817 z m -320.97195,-0.9654 c -5.19697,-0.016 -9.39728,-4.2413 -9.38165,-9.4383 0.0156,-5.197 4.24128,-9.3973 9.43826,-9.3816 5.19708,0.016 9.39748,4.2412 9.38185,9.4382 -0.0156,5.197 -4.24138,9.3973 -9.43846,9.3817 z M 547.31818,507.44592 c -5.19698,-0.0156 -9.39728,-4.24128 -9.38165,-9.43826 0.0156,-5.19698 4.24128,-9.39728 9.43826,-9.38165 5.19707,0.0156 9.39748,4.24128 9.38185,9.43826 -0.0156,5.19698 -4.24138,9.39728 -9.43846,9.38165 z m -320.97195,-0.96543 c -5.19697,-0.0156 -9.39728,-4.24128 -9.38165,-9.43826 0.0156,-5.19697 4.24128,-9.39728 9.43826,-9.38165 5.19708,0.0156 9.39749,4.24128 9.38185,9.43826 -0.0156,5.19698 -4.24138,9.39728 -9.43846,9.38165 z m 321.16379,-62.81528 c -5.19697,-0.0156 -9.39728,-4.24128 -9.38165,-9.43826 0.0156,-5.19698 4.24128,-9.39729 9.43826,-9.38165 5.19708,0.0156 9.39749,4.24128 9.38185,9.43826 -0.0156,5.19697 -4.24138,9.39728 -9.43846,9.38165 z m -320.97195,-0.96543 c -5.19697,-0.0156 -9.39728,-4.24128 -9.38165,-9.43826 0.0156,-5.19698 4.24129,-9.39729 9.43826,-9.38165 5.19708,0.0156 9.39749,4.24128 9.38186,9.43826 -0.0156,5.19697 -4.24139,9.39728 -9.43847,9.38165 z"
       style="fill:#000000;fill-opacity:1;stroke:none"
       id="path11358-2" />
    <path
       inkscape:connector-curvature="0"
       d="m 611.97109,699.8523 779.90401,0 0,377.8281 -779.90401,0 0,-377.8281 z m 737.47401,33.7466 c 0,5.197 4.213,9.41 9.41,9.41 5.197,0 9.411,-4.213 9.411,-9.41 0,-5.1971 -4.214,-9.4102 -9.411,-9.4102 -5.196,0 -9.41,4.2131 -9.41,9.4102 z m 0,320.9734 c 0,5.197 4.213,9.41 9.41,9.41 5.197,0 9.411,-4.213 9.411,-9.41 0,-5.1971 -4.214,-9.4102 -9.411,-9.4102 -5.196,0 -9.41,4.2131 -9.41,9.4102 z M 635.58009,733.5989 c 0,5.197 4.213,9.41 9.41,9.41 5.197,0 9.41,-4.213 9.41,-9.41 0,-5.1971 -4.213,-9.4102 -9.41,-9.4102 -5.197,0 -9.41,4.2131 -9.41,9.4102 z m 0,320.9734 c 0,5.197 4.213,9.41 9.41,9.41 5.197,0 9.41,-4.213 9.41,-9.41 0,-5.1971 -4.213,-9.4102 -9.41,-9.4102 -5.197,0 -9.41,4.2131 -9.41,9.4102 z"
       style="fill:#000000;fill-opacity:1;stroke:none"
       id="path11316-9" />
    <path
       inkscape:connector-curvature="0"
       id="path12947-5-7-0"
       style="fill:#000000;fill-opacity:1;stroke:none"
       d="m 1.9083301,146.89975 c 3.859128,3.48093 4.165053,9.43107 0.684712,13.29072 -3.48020796,3.85813 -9.431295,4.16473 -13.2904211,0.68401 -3.859125,-3.48165 -4.165052,-9.43108 -0.684764,-13.29091 3.4812291,-3.8589 9.4323531,-4.1648 13.2904731,-0.68382 z M 252.3426,162.54871 c 3.85822,3.4809 4.16599,9.43172 0.6838,13.29078 -3.48022,3.85823 -9.4303,4.16479 -13.29054,0.68389 -3.85813,-3.48078 -4.16599,-9.43171 -0.68376,-13.29006 3.4813,-3.85909 9.43237,-4.16549 13.2905,-0.68461 z m 239.17586,19.48362 c 3.85814,3.48078 4.16601,9.43162 0.68377,13.29007 -3.48017,3.85884 -9.43034,4.16529 -13.29049,0.6845 -3.85823,-3.48089 -4.165,-9.43168 -0.6838,-13.29076 3.48222,-3.85825 9.43135,-4.16535 13.29052,-0.68381 z m 69.60529,92.08589 c 3.17643,-1.95587 6.58741,-5.68769 3.77872,-10.3586 l -37.4176,-62.20748 c -8.28233,-13.77824 -22.9117,-29.26429 -37.17714,-36.67555 -18.0808,-9.39213 -38.36349,-11.2748 -58.70925,-12.35048 L -33.539396,127.92645 c -11.178472,-0.59113 -6.48454,3.02286 -6.173551,9.34027 0.311099,6.28059 -0.935232,13.2104 -5.15464,19.98482 -5.738695,9.21497 -15.039752,9.86461 -16.102886,18.30649 -0.333986,2.6612 7.322345,3.59398 7.323386,3.59323 0,0 343.022767,18.8063 505.670917,28.12537 22.64566,1.30082 55.04128,12.82686 65.1385,24.67338 0,0 18.53447,18.03902 28.46434,32.08123 1.3282,1.87946 2.50422,3.6873 3.45903,5.37116 2.55138,4.4932 7.79655,7.32795 12.03807,4.71572 z" />
    <path
       d="m 1356.7826,115.34483 c -4.3972,2.7696 -5.7174,8.57959 -2.9472,12.97744 2.769,4.39715 8.579,5.71702 12.9771,2.9481 4.3973,-2.7698 5.7174,-8.57991 2.9474,-12.97763 -2.769,-4.39765 -8.58,-5.7177 -12.9773,-2.94791 z M 1107.3632,87.917168 c -4.3973,2.769698 -5.7175,8.57969 -2.9474,12.977532 2.7691,4.39716 8.579,5.71711 12.9772,2.9481 4.3972,-2.7699 5.7175,-8.579778 2.9474,-12.977634 -2.7691,-4.397641 -8.58,-5.717693 -12.9772,-2.947998 z M 868.3812,66.194879 c -4.39725,2.769595 -5.71745,8.579586 -2.94736,12.977431 2.76817,4.396969 8.57907,5.717011 12.97725,2.948002 4.39726,-2.769693 5.71749,-8.579783 2.94739,-12.977629 -2.77011,-4.397636 -8.58,-5.717697 -12.97728,-2.947804 z m -84.3345,78.819391 c -2.79487,-2.47047 -5.51744,-6.73097 -1.94961,-10.85176 l 47.50833,-54.888928 c 10.51706,-12.158146 27.57994,-24.913744 42.90256,-29.774817 19.42218,-6.160805 39.72642,-4.545205 59.95718,-2.123751 l 462.48854,55.340266 c 11.1147,1.33053 5.8726,4.08711 4.4835,10.25861 -1.3796,6.13541 -1.3374,13.17565 1.6612,20.57267 4.0777,10.06099 13.1293,12.29268 12.732,20.79111 -0.1239,2.67975 -7.828,2.28772 -7.828,2.28772 0,0 -341.1849,-40.15699 -503.02923,-58.801705 -22.53308,-2.593271 -56.42215,3.221095 -68.39851,13.165735 0,0 -21.34688,14.60139 -33.53285,26.73754 -1.63079,1.62478 -3.09795,3.20559 -4.32774,4.70045 -3.28174,3.99092 -8.93417,5.88642 -12.66737,2.58686 z"
       style="fill:#000000;fill-opacity:1;stroke:none"
       id="path13066-2"
       inkscape:connector-curvature="0" />
    <path
       inkscape:connector-curvature="0"
       id="path12947-5-7-0-2"
       style="fill:#000000;fill-opacity:1;stroke:none"
       d="m -1.0014019,210.28828 c 3.816214,3.52791 4.049153,9.48145 0.52183504,13.29798 -3.52731304,3.81532 -9.48166504,4.04887 -13.29789614,0.52116 -3.816153,-3.52872 -4.049124,-9.48146 -0.521779,-13.29827 3.528353,-3.81608 9.4826421,-4.04893 13.2978401,-0.52087 z M 249.22226,229.00636 c 3.81521,3.52787 4.05009,9.4821 0.52082,13.29803 -3.52731,3.81531 -9.48067,4.04893 -13.29789,0.52105 -3.81521,-3.52787 -4.05009,-9.48219 -0.52077,-13.29751 3.52829,-3.81617 9.48264,-4.04964 13.29784,-0.52157 z m 238.91899,22.41434 c 3.81522,3.52777 4.05011,9.482 0.52087,13.29743 -3.52736,3.81592 -9.48069,4.04933 -13.29792,0.52156 -3.81522,-3.52787 -4.0491,-9.48205 -0.52082,-13.29813 3.52932,-3.81532 9.48172,-4.04947 13.29787,-0.52086 z m 68.47115,92.93234 c 3.20028,-1.91676 6.65663,-5.60656 3.90536,-10.31155 l -36.65203,-62.66151 c -8.11281,-13.8787 -22.55129,-29.54296 -36.72469,-37.12858 -17.96434,-9.61309 -38.2225,-11.74437 -58.55351,-13.06922 L -36.213839,190.88181 c -11.170398,-0.728 -6.521102,2.9431 -6.287565,9.2638 0.234051,6.28406 -1.097157,13.19797 -5.399296,19.92024 -5.851238,9.14387 -15.159553,9.67951 -16.326102,18.10771 -0.366577,2.65683 7.277735,3.68333 7.278786,3.68269 0,0 342.766416,23.01024 505.288136,34.32272 22.62799,1.57839 54.87989,13.50056 64.83108,25.47 0,0 18.31187,18.26496 28.06901,32.42778 1.30509,1.89567 2.45876,3.71786 3.39277,5.41311 2.49623,4.5242 7.70621,7.42302 11.97944,4.86308 z" />
    <path
       d="m 1340.6351,261.29201 c -4.4368,2.70588 -5.8408,8.49621 -3.1344,12.93351 2.7054,4.43675 8.4956,5.84047 12.9333,3.13527 4.4368,-2.70609 5.8408,-8.49638 3.1345,-12.93373 -2.7053,-4.43725 -8.4965,-5.84094 -12.9334,-3.13505 z M 1091.6378,230.2653 c -4.4369,2.7059 -5.8408,8.49621 -3.1345,12.93366 2.7053,4.43666 8.4956,5.84026 12.9333,3.13516 4.4368,-2.70609 5.8407,-8.49631 3.1345,-12.93376 -2.7054,-4.43716 -8.4966,-5.84095 -12.9333,-3.13506 z M 852.99443,205.09404 c -4.43676,2.70579 -5.84077,8.4963 -3.13446,12.93356 2.70438,4.43657 8.49562,5.84036 12.93334,3.13516 4.4368,-2.706 5.84076,-8.49631 3.13449,-12.93376 -2.70631,-4.43725 -8.49655,-5.84096 -12.93337,-3.13496 z m -85.46396,77.59335 c -2.75887,-2.51059 -5.41967,-6.8099 -1.7927,-10.87871 l 48.29605,-54.19719 c 10.69153,-12.00508 27.93684,-24.51287 43.32808,-29.1521 19.50912,-5.87972 39.7879,-3.97103 59.98158,-1.25764 l 461.64102,62.01333 c 11.0944,1.49089 5.8131,4.1715 4.335,10.32223 -1.468,6.11491 -1.5278,13.15507 1.3639,20.59446 3.9321,10.11896 12.9504,12.48114 12.4305,20.97287 -0.1626,2.67768 -7.8603,2.17448 -7.8603,2.17448 0,0 -340.5694,-45.07997 -502.1276,-66.05982 -22.49292,-2.92103 -56.46273,2.40575 -68.58147,12.17636 0,0 -21.55551,14.29172 -33.91547,26.25058 -1.65409,1.60109 -3.1439,3.16058 -4.39519,4.6376 -3.33902,3.94311 -9.01825,5.75677 -12.7034,2.40355 z"
       style="fill:#000000;fill-opacity:1;stroke:none"
       id="path13066-2-1"
       inkscape:connector-curvature="0" />
    <path
       inkscape:connector-curvature="0"
       id="path12947-5-7-0-9"
       style="fill:#000000;fill-opacity:1;stroke:none"
       d="m 13.687386,75.648132 c 3.815761,3.528496 4.047903,9.48198 0.520111,13.298184 -3.52767,3.81481 -9.4820589,4.047664 -13.29784586,0.519467 C -2.9060889,85.936587 -3.1383409,79.983786 0.38945814,76.167391 3.9182971,72.351841 9.8726171,72.119784 13.687386,75.648132 z M 263.90873,94.396834 c 3.81477,3.528348 4.04895,9.482646 0.51911,13.298146 -3.52768,3.81501 -9.48116,4.0477 -13.29794,0.51935 -3.81468,-3.52824 -4.04886,-9.482527 -0.51916,-13.297539 3.52885,-3.815649 9.48323,-4.048404 13.29799,-0.519957 z m 238.9163,22.443556 c 3.81468,3.52833 4.04886,9.48253 0.51917,13.29754 -3.52783,3.81549 -9.4812,4.0482 -13.29799,0.51995 -3.81476,-3.52845 -4.04795,-9.48259 -0.5191,-13.29824 3.52968,-3.81481 9.48212,-4.04836 13.29792,-0.51925 z m 68.45977,92.9408 c 3.20044,-1.91647 6.65727,-5.60585 3.90663,-10.3111 L 538.54702,136.80404 C 530.43582,122.92433 515.99928,107.25834 501.82684,99.671066 483.8637,90.055645 463.60586,87.921977 443.27498,86.594618 L -21.52269,56.237479 c -11.170315,-0.729308 -6.521461,2.942277 -6.288703,9.263029 0.233291,6.284034 -1.098848,13.19779 -5.401722,19.919524 -5.852356,9.143215 -15.160744,9.677666 -16.328314,18.105698 -0.366906,2.65682 7.277297,3.68432 7.278328,3.68357 0,0 342.763451,23.05224 505.283921,34.38449 22.62785,1.58109 54.8782,13.5073 64.82796,25.47806 0,0 18.30968,18.26706 28.06501,32.4311 1.30486,1.89585 2.45833,3.71813 3.39223,5.41358 2.49559,4.52457 7.70522,7.42397 11.9788,4.86456 z" />
    <path
       d="m 1345.9945,190.73501 c -4.4443,2.69355 -5.8643,8.47997 -3.1704,12.92481 2.693,4.44417 8.4792,5.86396 12.9245,3.17121 4.4443,-2.69376 5.8644,-8.48018 3.1705,-12.92502 -2.6931,-4.44466 -8.4803,-5.86456 -12.9246,-3.171 z m -248.9102,-31.71923 c -4.4443,2.69355 -5.8644,8.47997 -3.1704,12.92492 2.693,4.44416 8.4793,5.86377 12.9245,3.17111 4.4443,-2.69375 5.8644,-8.48018 3.1705,-12.92502 -2.693,-4.44476 -8.4803,-5.86456 -12.9246,-3.17101 z M 858.51196,133.18073 c -4.44431,2.69345 -5.86437,8.47987 -3.17044,12.92471 2.69205,4.44398 8.47933,5.86397 12.92455,3.17111 4.44433,-2.69364 5.86441,-8.48007 3.17048,-12.92492 -2.69394,-4.44474 -8.48026,-5.86465 -12.92459,-3.1709 z m -85.67949,77.35525 c -2.75188,-2.51833 -5.4007,-6.82505 -1.76242,-10.88371 l 48.44664,-54.06263 c 10.72487,-11.97519 28.00491,-24.43498 43.40899,-29.03146 19.5254,-5.8253 39.79881,-3.86036 59.98486,-1.09083 l 461.46686,63.29745 c 11.0901,1.52163 5.8014,4.1877 4.3061,10.33424 -1.485,6.11082 -1.5645,13.15077 1.3067,20.5983 3.9038,10.12982 12.9155,12.517 12.372,21.00726 -0.1701,2.6772 -7.8663,2.15254 -7.8663,2.15254 0,0 -340.4427,-46.02714 -501.94187,-67.45653 -22.48477,-2.98307 -56.46923,2.24877 -68.61508,11.98566 0,0 -21.59522,14.23172 -33.98837,26.15604 -1.65854,1.5965 -3.1527,3.15183 -4.40809,4.62535 -3.34998,3.93381 -9.03423,5.73167 -12.71003,2.36832 z"
       style="fill:#000000;fill-opacity:1;stroke:none"
       id="path13066-2-7"
       inkscape:connector-curvature="0" />
  </g>
</svg>
