<?xml version="1.0" encoding="UTF-8" standalone="no"?>
<!-- Created with Inkscape (http://www.inkscape.org/) -->
<svg
   xmlns:dc="http://purl.org/dc/elements/1.1/"
   xmlns:cc="http://creativecommons.org/ns#"
   xmlns:rdf="http://www.w3.org/1999/02/22-rdf-syntax-ns#"
   xmlns:svg="http://www.w3.org/2000/svg"
   xmlns="http://www.w3.org/2000/svg"
   xmlns:xlink="http://www.w3.org/1999/xlink"
   xmlns:sodipodi="http://sodipodi.sourceforge.net/DTD/sodipodi-0.dtd"
   xmlns:inkscape="http://www.inkscape.org/namespaces/inkscape"
   id="svg2"
   sodipodi:version="0.32"
   inkscape:version="0.46+devel"
   width="459.37399"
   height="201.32809"
   version="1.0"
   sodipodi:docname="pfant-logo.svg"
   inkscape:output_extension="org.inkscape.output.svg.inkscape"
   inkscape:export-filename="/home/felipe/Ãrea de Trabalho/pfant-logo-hi.png"
   inkscape:export-xdpi="299.99402"
   inkscape:export-ydpi="299.99402">
  <metadata
     id="metadata7">
    <rdf:RDF>
      <cc:Work
         rdf:about="">
        <dc:format>image/svg+xml</dc:format>
        <dc:type
           rdf:resource="http://purl.org/dc/dcmitype/StillImage" />
      </cc:Work>
    </rdf:RDF>
  </metadata>
  <defs
     id="defs5">
    <linearGradient
       id="linearGradient4924">
      <stop
         style="stop-color:#5498dc;stop-opacity:0.01060071"
         offset="0"
         id="stop4926" />
      <stop
         id="stop4928"
         offset="0.06115814"
         style="stop-color:#6d96be;stop-opacity:0.67137808" />
      <stop
         style="stop-color:#264665;stop-opacity:0.52650177"
         offset="0.64520425"
         id="stop4930" />
      <stop
         style="stop-color:#5795d4;stop-opacity:0"
         offset="1"
         id="stop4932" />
    </linearGradient>
    <linearGradient
       id="linearGradient4428">
      <stop
         style="stop-color:#000000;stop-opacity:0;"
         offset="0"
         id="stop4430" />
      <stop
         id="stop4432"
         offset="0.40684563"
         style="stop-color:#000000;stop-opacity:0.85490197;" />
      <stop
         style="stop-color:#000000;stop-opacity:0.85490197;"
         offset="0.64520425"
         id="stop4434" />
      <stop
         style="stop-color:#000000;stop-opacity:0;"
         offset="1"
         id="stop4436" />
    </linearGradient>
    <linearGradient
       id="linearGradient4214">
      <stop
         id="stop4216"
         offset="0"
         style="stop-color:#788898;stop-opacity:0" />
      <stop
         style="stop-color:#788898;stop-opacity:0.85467128"
         offset="0.40684563"
         id="stop4218" />
      <stop
         id="stop4222"
         offset="0.64520425"
         style="stop-color:#788898;stop-opacity:0.85467128" />
      <stop
         id="stop4220"
         offset="1"
         style="stop-color:#788898;stop-opacity:0" />
    </linearGradient>
    <linearGradient
       id="linearGradient4135">
      <stop
         style="stop-color:#000000;stop-opacity:0;"
         offset="0"
         id="stop4137" />
      <stop
         id="stop4212"
         offset="0.5"
         style="stop-color:#000000;stop-opacity:1;" />
      <stop
         style="stop-color:#000000;stop-opacity:0;"
         offset="1"
         id="stop4139" />
    </linearGradient>
    <linearGradient
       id="linearGradient3763">
      <stop
         style="stop-color:#ff17f4;stop-opacity:1;"
         offset="0"
         id="stop3765" />
      <stop
         id="stop3771"
         offset="0.33336404"
         style="stop-color:#fe7686;stop-opacity:1;" />
      <stop
         style="stop-color:#fed518;stop-opacity:1;"
         offset="1"
         id="stop3767" />
    </linearGradient>
    <linearGradient
       id="linearGradient3755">
      <stop
         style="stop-color:#ffe984;stop-opacity:1;"
         offset="0"
         id="stop3757" />
      <stop
         style="stop-color:#fed518;stop-opacity:1;"
         offset="1"
         id="stop3759" />
    </linearGradient>
    <linearGradient
       id="linearGradient3745">
      <stop
         style="stop-color:#fed518;stop-opacity:1;"
         offset="0"
         id="stop3747" />
      <stop
         id="stop3753"
         offset="0.5"
         style="stop-color:#fff4c0;stop-opacity:1;" />
      <stop
         style="stop-color:#fed518;stop-opacity:1;"
         offset="1"
         id="stop3749" />
    </linearGradient>
    <linearGradient
       id="linearGradient3737">
      <stop
         style="stop-color:#fed518;stop-opacity:1;"
         offset="0"
         id="stop3739" />
      <stop
         style="stop-color:#feffd3;stop-opacity:1;"
         offset="1"
         id="stop3741" />
    </linearGradient>
    <linearGradient
       id="linearGradient3717">
      <stop
         style="stop-color:#fe18f1;stop-opacity:1;"
         offset="0"
         id="stop3719" />
      <stop
         id="stop3725"
         offset="0.4231098"
         style="stop-color:#fed518;stop-opacity:1;" />
      <stop
         style="stop-color:#ffe880;stop-opacity:1;"
         offset="1"
         id="stop3721" />
    </linearGradient>
    <linearGradient
       id="linearGradient3701">
      <stop
         style="stop-color:#fed518;stop-opacity:1;"
         offset="0"
         id="stop3703" />
      <stop
         style="stop-color:#fe18e7;stop-opacity:1;"
         offset="1"
         id="stop3705" />
    </linearGradient>
    <linearGradient
       id="linearGradient3693">
      <stop
         style="stop-color:#fed518;stop-opacity:1"
         offset="0"
         id="stop3695" />
      <stop
         id="stop3697"
         offset="1"
         style="stop-color:#f9eaaf;stop-opacity:1" />
    </linearGradient>
    <linearGradient
       id="linearGradient3600">
      <stop
         id="stop3602"
         offset="0"
         style="stop-color:#e4c478;stop-opacity:1;" />
      <stop
         style="stop-color:#edc62b;stop-opacity:1;"
         offset="0.58924794"
         id="stop3604" />
      <stop
         id="stop3608"
         offset="1"
         style="stop-color:#f47689;stop-opacity:1;" />
    </linearGradient>
    <linearGradient
       id="linearGradient3575">
      <stop
         style="stop-color:#e478a4;stop-opacity:1;"
         offset="0"
         id="stop3577" />
      <stop
         id="stop3583"
         offset="0.3981764"
         style="stop-color:#edc62b;stop-opacity:1;" />
      <stop
         style="stop-color:#ffffb2;stop-opacity:1;"
         offset="0.73575282"
         id="stop3585" />
      <stop
         style="stop-color:#f4da76;stop-opacity:1;"
         offset="1"
         id="stop3579" />
    </linearGradient>
    <linearGradient
       id="linearGradient3567">
      <stop
         style="stop-color:#3c4c58;stop-opacity:1;"
         offset="0"
         id="stop3569" />
      <stop
         style="stop-color:#3c4c58;stop-opacity:0;"
         offset="1"
         id="stop3571" />
    </linearGradient>
    <inkscape:perspective
       sodipodi:type="inkscape:persp3d"
       inkscape:vp_x="0 : 0.5 : 1"
       inkscape:vp_y="0 : 1000 : 0"
       inkscape:vp_z="1 : 0.5 : 1"
       inkscape:persp3d-origin="0.5 : 0.33333333 : 1"
       id="perspective9" />
    <clipPath
       clipPathUnits="userSpaceOnUse"
       id="clipPath2500">
      <rect
         style="opacity:1;fill:#205078;fill-opacity:1;stroke:#ff0000;stroke-width:8;stroke-miterlimit:4;stroke-opacity:1;stroke-dasharray:none"
         id="rect2502"
         width="553.33502"
         height="220.82245"
         x="36.66164"
         y="150.05695" />
    </clipPath>
    <inkscape:perspective
       id="perspective2585"
       inkscape:persp3d-origin="0.5 : 0.33333333 : 1"
       inkscape:vp_z="1 : 0.5 : 1"
       inkscape:vp_y="0 : 1000 : 0"
       inkscape:vp_x="0 : 0.5 : 1"
       sodipodi:type="inkscape:persp3d" />
    <inkscape:perspective
       id="perspective2610"
       inkscape:persp3d-origin="0.5 : 0.33333333 : 1"
       inkscape:vp_z="1 : 0.5 : 1"
       inkscape:vp_y="0 : 1000 : 0"
       inkscape:vp_x="0 : 0.5 : 1"
       sodipodi:type="inkscape:persp3d" />
    <inkscape:perspective
       id="perspective2636"
       inkscape:persp3d-origin="0.5 : 0.33333333 : 1"
       inkscape:vp_z="1 : 0.5 : 1"
       inkscape:vp_y="0 : 1000 : 0"
       inkscape:vp_x="0 : 0.5 : 1"
       sodipodi:type="inkscape:persp3d" />
    <inkscape:perspective
       id="perspective3635"
       inkscape:persp3d-origin="0.5 : 0.33333333 : 1"
       inkscape:vp_z="1 : 0.5 : 1"
       inkscape:vp_y="0 : 1000 : 0"
       inkscape:vp_x="0 : 0.5 : 1"
       sodipodi:type="inkscape:persp3d" />
    <inkscape:perspective
       id="perspective3671"
       inkscape:persp3d-origin="0.5 : 0.33333333 : 1"
       inkscape:vp_z="1 : 0.5 : 1"
       inkscape:vp_y="0 : 1000 : 0"
       inkscape:vp_x="0 : 0.5 : 1"
       sodipodi:type="inkscape:persp3d" />
    <linearGradient
       inkscape:collect="always"
       xlink:href="#linearGradient3575"
       id="linearGradient3604"
       gradientUnits="userSpaceOnUse"
       gradientTransform="translate(0,14.976299)"
       x1="74.553787"
       y1="363.91711"
       x2="139.67003"
       y2="394.49374" />
    <linearGradient
       inkscape:collect="always"
       xlink:href="#linearGradient3600"
       id="linearGradient3606"
       gradientUnits="userSpaceOnUse"
       gradientTransform="translate(-0.3120062,-1.0409927e-8)"
       x1="140.7148"
       y1="424.94376"
       x2="184.95639"
       y2="429.62384" />
    <linearGradient
       inkscape:collect="always"
       xlink:href="#linearGradient3763"
       id="linearGradient3608"
       gradientUnits="userSpaceOnUse"
       x1="194.7271"
       y1="438.90369"
       x2="211.69669"
       y2="384.90369" />
    <linearGradient
       inkscape:collect="always"
       xlink:href="#linearGradient3693"
       id="linearGradient3610"
       gradientUnits="userSpaceOnUse"
       gradientTransform="translate(125.61415,-34.318136)"
       x1="141.66663"
       y1="443.44376"
       x2="176.45641"
       y2="395.62384" />
    <linearGradient
       inkscape:collect="always"
       xlink:href="#linearGradient3755"
       id="linearGradient3612"
       gradientUnits="userSpaceOnUse"
       x1="252.66608"
       y1="369.64188"
       x2="235.93042"
       y2="408.64188" />
    <linearGradient
       inkscape:collect="always"
       xlink:href="#linearGradient3745"
       id="linearGradient3614"
       gradientUnits="userSpaceOnUse"
       x1="334.48355"
       y1="349.80249"
       x2="311.36508"
       y2="408.80249" />
    <linearGradient
       inkscape:collect="always"
       xlink:href="#linearGradient3701"
       id="linearGradient3616"
       gradientUnits="userSpaceOnUse"
       gradientTransform="translate(1,-2.0313905e-8)"
       x1="418"
       y1="379"
       x2="449.44077"
       y2="313.31934" />
    <linearGradient
       inkscape:collect="always"
       xlink:href="#linearGradient3737"
       id="linearGradient3618"
       gradientUnits="userSpaceOnUse"
       x1="349.40012"
       y1="341.61224"
       x2="349.40012"
       y2="391.65598" />
    <linearGradient
       inkscape:collect="always"
       xlink:href="#linearGradient3717"
       id="linearGradient3620"
       gradientUnits="userSpaceOnUse"
       x1="382.8176"
       y1="325.42422"
       x2="371.27914"
       y2="388.42422" />
    <inkscape:perspective
       id="perspective3789"
       inkscape:persp3d-origin="0.5 : 0.33333333 : 1"
       inkscape:vp_z="1 : 0.5 : 1"
       inkscape:vp_y="0 : 1000 : 0"
       inkscape:vp_x="0 : 0.5 : 1"
       sodipodi:type="inkscape:persp3d" />
    <linearGradient
       inkscape:collect="always"
       xlink:href="#linearGradient3575"
       id="linearGradient3803"
       gradientUnits="userSpaceOnUse"
       gradientTransform="translate(0,14.976299)"
       x1="74.553787"
       y1="363.91711"
       x2="139.67003"
       y2="394.49374" />
    <linearGradient
       inkscape:collect="always"
       xlink:href="#linearGradient4214"
       id="linearGradient4210"
       gradientUnits="userSpaceOnUse"
       gradientTransform="translate(55.573797,-288.6872)"
       x1="78.823868"
       y1="415.18066"
       x2="79.689148"
       y2="513.45148" />
    <clipPath
       clipPathUnits="userSpaceOnUse"
       id="clipPath4238">
      <path
         style="opacity:0.2;fill:#000000;fill-opacity:1;fill-rule:evenodd;stroke:none;display:inline"
         d="m 391.56842,179.58974 c -0.18646,-0.04194 -0.39395,-0.06486 -0.59021,-0.08999 -4.5734,0.88709 -9.23936,1.91867 -14.05575,1.61608 -8.49365,0.56962 -17.38512,-0.78199 -25.64184,-0.02974 -2.32201,0.16821 -2.74551,5.02446 -3.38597,4.54019 -5.52899,-5.36368 -14.43861,-4.44355 -21.55699,-4.03152 -7.82997,1.54035 -15.76361,5.33538 -20.25337,12.20369 0.24242,-3.26485 0.73387,-7.35815 -1.40751,-9.67234 5.16326,-5.57777 -3.61478,-14.87364 -9.44304,-9.5805 -3.70599,2.14911 -3.77545,8.19019 -0.38404,10.59214 -1.16344,3.0901 -2.34671,-3.08401 -4.93034,-2.38983 -4.0706,-0.06937 -8.03198,2.08067 -12.25703,1.40886 -9.4006,0.76382 -19.01951,-0.64258 -28.22007,0.07021 -1.91967,1.2937 -2.25439,4.04886 -4.62027,1.72944 -12.77917,-5.72012 -25.99269,4.11205 -34.50414,12.96107 -6.52862,7.24271 -13.48713,15.2019 -16.29941,24.61053 0.45682,5.86427 8.17937,5.15367 11.25859,1.78617 10.97171,-5.85691 23.63587,-12.36513 36.30993,-9.74219 3.95828,0.5327 5.77356,4.2753 4.45796,8.01625 -1.01609,3.1352 1.83506,5.58079 4.27016,6.51337 4.56523,6.56578 14.18376,5.0361 21.12511,4.69369 10.60697,-0.22021 20.61201,-8.19354 21.45276,-19.12568 1.42262,-7.78614 -3.38308,-16.356 -8.22621,-20.7621 3.17009,0.228 7.00427,0.24645 9.08721,-2.62683 2.06982,9.76261 1.4896,19.70761 0.21483,29.51782 0.88918,5.35553 10.83221,7.41317 11.8366,0.93614 0.64346,-2.19774 0.81326,-4.49276 0.93236,-6.76581 6.74929,11.39757 22.5781,16.06964 34.45866,10.02769 8.31588,-2.88105 17.00508,-10.82754 15.0922,-20.37184 -0.81386,-2.87767 -4.75395,-2.59796 -3.70804,-5.94617 -1.62815,-7.08268 -10.42538,-4.68964 -15.65989,-4.7158 -5.69704,0.26705 -12.8912,1.41853 -17.72942,0.7184 7.17775,-5.95931 16.52096,-1.6378 24.681,-1.48182 2.96476,0.26845 4.48343,-4.31982 5.04435,-5.07491 4.57625,4.467 12.19112,2.44391 18.09562,3.80322 9.00338,1.32979 19.02985,10.5415 15.71256,20.30028 -4.40677,9.61899 -16.74321,8.60956 -25.47152,7.08952 -5.57213,-0.79183 -7.80252,7.44801 -2.44181,9.56855 9.27314,3.79677 20.26928,2.51735 29.3703,-1.25491 13.14324,-7.12847 13.86783,-27.37869 2.39387,-36.3937 -0.83673,-1.11569 3.88727,0.15187 5.33713,-0.76635 6.44965,-1.43923 5.43591,-10.58098 -0.34433,-11.88128 z m -0.32541,1.98224 c 2.18107,0.57898 3.3396,3.01099 3.10274,5.17383 -2.58805,5.5601 -9.99572,1.95315 -14.65896,2.68564 4.33667,2.8989 8.96622,6.70801 11.16178,11.77515 5.86448,11.43323 -2.05999,27.39863 -15.33001,28.06258 -6.91985,0.63158 -16.03104,2.58411 -21.51745,-2.8259 -1.8384,-5.09053 5.59511,-4.38888 8.37683,-3.4913 9.09402,1.85162 21.40212,-1.49951 22.97985,-12.00636 0.87531,-12.12052 -12.14035,-21.08163 -23.44146,-20.51579 -3.63271,-0.97749 -10.42786,0.88982 -11.6839,-3.73892 -0.22858,-5.92019 7.21221,-3.5002 10.80389,-3.63085 9.90315,-0.10415 20.23168,0.98683 29.74532,-1.57663 0.15427,0.02152 0.31596,0.04996 0.46137,0.08855 z m -284.51514,-65.32042 c -0.51959,-0.10617 -1.12809,-0.1352 -1.85629,-0.06629 -11.181585,-1.19074 -22.353592,2.17915 -33.319781,3.99997 -16.448508,4.16975 -34.856359,8.13615 -46.575019,21.42873 -4.785373,5.45255 -5.688133,14.57198 0.686668,19.20712 11.236815,9.61392 25.736465,14.23969 39.15767,20.20686 -7.417566,-1.12777 -18.419656,-0.90474 -20.50442,8.2291 -2.150253,12.68526 5.066744,24.74662 10.964392,35.46713 1.785707,3.49179 5.619524,7.50105 9.146718,3.55888 0.326905,-2.2091 3.115132,2.05694 5.159285,0.89919 12.148569,-6.04318 25.086817,-14.1575 39.307887,-12.80111 3.88805,0.25238 8.46563,3.0128 6.69216,7.50314 -2.26341,5.92058 6.65992,10.26829 9.73184,4.7782 0.1693,-4.26616 3.44505,0.19171 6.02381,-1.16796 5.35261,-1.97595 3.22269,-9.44633 5.763,-13.73806 2.30866,-8.24603 8.8651,-19.55534 19.10044,-16.18838 9.14934,2.70282 8.60046,14.52839 7.85404,22.18292 -1.45608,4.31099 0.92133,10.67886 6.34876,9.06071 5.74046,-3.69018 5.14952,-12.13483 5.38888,-18.22944 0.27781,-4.49439 -2.14775,-10.12249 -2.69361,-13.27196 2.89586,0.80918 8.01518,-1.37349 9.13602,1.13326 0.99956,8.6844 0.89628,17.5426 -0.55088,26.15142 1.25402,5.36156 10.12625,6.05047 10.8016,-0.04566 2.20486,-9.18365 0.80003,-19.91788 0.75826,-28.42301 6.52836,-1.17625 13.92186,2.23506 19.88732,-1.18689 4.60523,-4.7941 -2.02189,-10.65807 -7.23694,-9.61641 -11.91758,-1.0132 -23.68925,3.20868 -35.54088,0.64 -2.3244,-0.42252 -4.6826,1.26438 -5.89502,2.52618 -9.09284,-6.23707 -21.61985,-2.72325 -28.50095,4.84228 0.62346,-5.14291 -3.64304,-10.8548 -9.14941,-8.72828 -5.56249,1.82863 -2.79975,8.03315 -2.41024,12.16116 -4.91364,-9.53822 -17.19056,-14.22313 -27.015541,-9.33787 -2.227895,1.01368 -4.043288,2.70035 -3.765812,-0.79261 -3.815474,-8.75621 -14.10547,-11.88255 -21.852366,-16.22301 -11.315534,-5.90127 -24.456574,-9.46238 -34.058894,-17.96675 0.362484,-6.35448 7.602916,-10.03476 12.598633,-12.94893 17.371602,-9.24608 37.381749,-10.87723 56.15352,-15.81849 2.68298,-2.10187 3.90232,-6.68196 0.26515,-7.42514 z m -2.28678,1.82381 c 2.13049,0.4515 3.55279,1.44791 0.9953,3.84649 -21.750141,5.54971 -46.048653,7.13818 -64.515304,21.3489 -2.62696,2.51152 -7.533053,7.31423 -4.277289,11.02601 15.282381,12.21267 35.949854,15.83422 51.418683,27.90887 3.92777,2.33513 5.920345,9.55625 0.478945,11.36736 -11.233682,2.55887 -22.857333,-4.10211 -33.964478,-2.04829 -2.2176,8.29725 2.702888,16.87702 4.98422,24.62931 0.457842,3.64092 6.285421,9.48501 1.31458,11.87699 -5.512227,-4.43708 -7.723744,-11.90167 -10.887308,-18.00259 -2.812788,-7.56719 -7.443223,-17.98652 -0.963564,-24.93291 8.677784,-5.37721 19.459248,-0.64245 28.823966,-0.5258 -10.608714,-5.16807 -21.807191,-9.00002 -32.457547,-14.09072 -7.93186,-4.37788 -18.563861,-7.84856 -22.185594,-16.92408 -0.988707,-10.05402 8.882955,-16.85328 16.76496,-20.83819 19.436257,-9.1394 40.922369,-13.35976 62.2226,-14.93942 0.74513,0.06294 1.53767,0.14757 2.24783,0.29807 z m 237.75158,66.38035 c 0.55951,0.15023 1.10159,0.31119 1.6389,0.52621 4.73461,1.01939 2.78475,8.35972 -1.77955,7.2869 -9.02826,-2.18073 -20.9195,-3.78431 -27.12979,4.91071 8.25138,2.00315 19.0239,-0.58692 28.27047,-0.50927 3.59633,-0.87362 8.65437,1.17343 7.30547,5.53171 -0.69666,1.94593 -1.98689,2.36125 0.80391,1.98732 5.39535,0.65137 3.13543,7.83488 1.15914,10.86715 -5.17358,7.67637 -15.13617,11.37339 -24.0523,11.66084 -13.65781,-0.43578 -26.43482,-14.12122 -22.60049,-27.91932 5.29376,-13.2134 21.78603,-17.73667 34.68343,-14.75546 0.56432,0.12348 1.14129,0.26298 1.70081,0.41321 z m -42.21998,-9.37946 c 7.62361,2.34997 3.89855,11.8018 -2.94204,8.88834 -5.13708,-1.84329 -2.04161,-9.72241 2.94204,-8.88834 z m 1.39023,9.86163 c 1.33139,0.29036 2.52984,1.28674 2.86603,2.62439 -0.81734,11.25807 1.4865,22.70949 -0.15241,33.87962 -0.1015,4.83557 -6.83057,3.87443 -8.07656,0.37182 1.27814,-9.96293 1.81927,-20.22408 -0.35085,-30.23183 -1.04937,-3.48912 1.23515,-7.20979 5.12358,-6.73399 0.19282,0.01111 0.40001,0.04851 0.59021,0.08999 z m -11.92012,-0.24732 c 2.14955,0.50804 3.50957,2.97413 3.18696,5.09897 -2.38905,5.73436 -10.02182,2.00522 -14.62225,2.79217 6.6201,4.1784 12.65635,10.65026 12.96885,18.9355 1.271,10.99455 -8.01958,21.07481 -18.95164,21.16992 -6.46833,0.3586 -15.07693,2.06748 -19.85908,-3.36063 0.28916,-2.62533 -4.03967,-0.86975 -4.23858,-3.92075 1.00143,-4.34398 0.66912,-10.19977 -4.61763,-11.35312 -13.09735,-3.86145 -26.73592,3.18189 -38.10501,8.94894 -2.33114,1.92519 -7.95201,5.22602 -9.20733,0.49558 5.09312,-12.55543 14.6154,-23.48956 25.48826,-31.57181 7.66608,-5.98958 19.97673,-8.51018 27.40963,-0.79936 -1.77213,-3.70372 2.56688,-6.7247 6.12112,-5.11591 11.25583,0.07984 23.0855,1.4625 33.99556,-1.40013 0.15015,0.01573 0.28784,0.04676 0.43114,0.08063 z m 58.80454,20.18456 c -0.12713,-0.02115 -0.92331,0.20522 -0.91915,0.17919 -10.21561,-1.31061 -20.33567,0.51464 -30.60969,-0.42652 -5.2821,-1.75731 -2.21572,4.57739 -1.36782,7.0717 4.06167,9.74067 17.38037,8.66795 25.0198,4.13097 4.81771,-1.80628 5.63423,-6.93309 7.71635,-10.83586 0.15563,-0.08192 0.20289,-0.11243 0.16051,-0.11948 z m -3.3902,2.21317 c -2.09806,8.14511 -12.48219,10.84223 -19.91571,9.8047 -5.2172,-0.5024 -8.43358,-5.419 -9.086,-10.32689 9.69052,1.29103 19.39054,-1.07496 29.00171,0.52219 z m -77.14171,-12.58302 c -5.75132,-1.34253 -11.9067,-0.63123 -17.61991,-2.28953 7.1869,7.80571 8.55054,20.75127 5.02645,31.00433 -1.4605,2.46389 0.14173,2.31927 2.29166,2.47393 8.71159,1.67145 20.7012,1.29021 25.13973,-7.91942 4.62159,-10.21704 -5.3807,-20.9721 -14.83793,-23.26931 z m -0.38587,1.9664 c 8.22717,2.10457 17.41795,11.40378 13.39849,20.50173 -4.38623,8.56456 -15.52982,8.0274 -23.65552,6.693 2.92133,-9.32619 2.73294,-20.03053 -2.37058,-28.5642 4.19244,0.55644 8.48555,0.41998 12.62761,1.36947 z m -27.50236,-2.42305 c -0.75111,-0.19867 -1.52578,-0.26271 -2.29246,-0.37437 -12.55239,0.25614 -21.25218,11.58834 -28.75057,20.34758 11.74592,-5.43834 27.82678,-11.1915 40.86227,-4.05943 0.67502,-6.00165 -3.13206,-14.17223 -9.81924,-15.91378 z m -30.54325,-6.35311 c 2.63642,0.63429 4.77945,3.76504 2.28289,5.9605 -6.69022,2.03715 -14.0589,-0.62176 -20.94248,0.65206 1.1419,9.32385 1.7976,19.42451 0.13784,28.94847 0.12637,4.35274 -5.86279,4.86249 -7.04515,0.99735 1.71013,-9.37751 1.40746,-19.13366 0.16949,-28.64185 -4.07686,-0.98334 -10.50212,0.61261 -15.39155,-0.93051 5.36944,6.79199 6.08941,16.12386 4.80428,24.45296 -0.2856,3.34433 -2.39552,10.63914 -6.83663,6.73752 -1.85752,-5.48607 1.11319,-11.94664 -0.35419,-17.76324 -0.21822,-8.10452 -8.11144,-14.77668 -16.19725,-12.90034 -11.13845,3.20401 -14.54253,16.09329 -16.81626,26.09036 1.08762,4.38765 -4.89009,5.97099 -6.52985,2.35988 0.02275,-8.44438 1.1431,-17.10164 -0.03072,-25.65768 0.48419,-3.66186 -3.90262,-10.30657 1.57098,-11.6703 5.50123,-1.15263 6.18465,5.63168 5.94207,9.50335 -0.54067,4.28942 1.09006,1.28385 2.94821,-0.64912 6.91293,-8.25157 20.2975,-10.99141 28.71899,-3.33148 0.05777,-1.92651 2.04287,-4.48621 4.60668,-3.89738 12.8906,2.82159 25.5544,-2.29366 38.44082,-0.36494 0.17903,0.01896 0.34607,0.0621 0.52183,0.10439 z m 30.03646,8.28783 c 4.70089,1.11449 8.02564,6.8647 8.04304,10.73209 -10.28408,-4.00351 -21.69485,-1.63538 -31.64697,2.17685 6.15699,-6.14568 13.98926,-14.70711 23.60393,-12.90894 z m -128.0477,-7.79483 c 0.54022,0.16176 1.07493,0.35483 1.59284,0.57875 13.49152,6.18043 16.19328,23.88818 11.45883,36.66269 0.28979,4.39366 -6.72128,5.11511 -6.87528,0.71879 1.14735,-4.60151 0.08971,-10.15802 -5.34893,-11.02781 -13.279812,-3.31085 -26.826704,3.65356 -38.379272,9.74931 -2.453038,2.4843 -6.577402,3.34349 -8.670359,-0.07445 3.044557,-6.41978 6.939332,-12.42581 11.471655,-17.89596 8.302096,-9.56908 19.273464,-20.80584 33.110176,-19.1087 0.55445,0.10519 1.10014,0.23562 1.64034,0.39738 z m -1.94508,7.17892 c -13.337774,-2.34309 -23.290178,11.08611 -31.065341,19.93507 11.74067,-5.42926 27.880271,-11.19107 40.892501,-4.05152 0.65668,-6.07104 -3.12444,-14.10301 -9.82716,-15.88355 z m -0.40819,1.92825 c 4.60923,1.29673 7.9046,6.71204 7.95236,10.70833 -10.27586,-4.0032 -21.722032,-1.65412 -31.654895,2.20709 5.925701,-6.09729 13.463307,-14.0764 22.757485,-13.13066 0.31833,0.04808 0.63777,0.1288 0.94505,0.21524 z m -24.947939,-1.07554 -0.727714,0.6816 -0.413161,0.34403 c -7.637508,7.13921 -14.028493,15.62496 -18.721452,24.97752 -3.281357,-9.41788 -8.582067,-18.98539 -7.98118,-29.09704 9.330302,-0.33243 18.499248,2.93023 27.843507,3.09389 z"
         id="path4240" />
    </clipPath>
    <linearGradient
       inkscape:collect="always"
       xlink:href="#linearGradient4214"
       id="linearGradient4274"
       gradientUnits="userSpaceOnUse"
       gradientTransform="translate(55.573797,-288.6872)"
       x1="78.823868"
       y1="415.18066"
       x2="79.689148"
       y2="513.45148" />
    <linearGradient
       inkscape:collect="always"
       xlink:href="#linearGradient4214"
       id="linearGradient4341"
       gradientUnits="userSpaceOnUse"
       gradientTransform="translate(55.573797,-288.6872)"
       x1="78.823868"
       y1="415.18066"
       x2="79.689148"
       y2="513.45148" />
    <linearGradient
       inkscape:collect="always"
       xlink:href="#linearGradient4428"
       id="linearGradient4426"
       gradientUnits="userSpaceOnUse"
       gradientTransform="translate(55.573797,-288.6872)"
       x1="78.823868"
       y1="415.18066"
       x2="79.689148"
       y2="513.45148" />
    <linearGradient
       inkscape:collect="always"
       xlink:href="#linearGradient4428"
       id="linearGradient4444"
       gradientUnits="userSpaceOnUse"
       gradientTransform="translate(55.573797,-288.6872)"
       x1="78.823868"
       y1="415.18066"
       x2="79.689148"
       y2="513.45148" />
    <inkscape:perspective
       id="perspective4457"
       inkscape:persp3d-origin="0.5 : 0.33333333 : 1"
       inkscape:vp_z="1 : 0.5 : 1"
       inkscape:vp_y="0 : 1000 : 0"
       inkscape:vp_x="0 : 0.5 : 1"
       sodipodi:type="inkscape:persp3d" />
    <linearGradient
       inkscape:collect="always"
       xlink:href="#linearGradient4428"
       id="linearGradient4548"
       gradientUnits="userSpaceOnUse"
       gradientTransform="translate(55.573797,-288.6872)"
       x1="78.823868"
       y1="415.18066"
       x2="79.689148"
       y2="513.45148" />
    <clipPath
       clipPathUnits="userSpaceOnUse"
       id="clipPath4614">
      <g
         id="g4616"
         transform="translate(-44.451515,-164.9925)"
         style="fill:#3c4c58;fill-opacity:1;display:inline"
         inkscape:label="PINBALL">
        <path
           sodipodi:nodetypes="cccccccccccccscccccccc"
           id="path4618"
           d="m 170.89777,331.71869 5.38669,0 c 6.11686,0 4.56126,-0.16804 4.56126,-17.92042 0,-19.03144 2.13898,-19.0763 -5.7754,-19.0763 l -4.17255,0.05058 0,36.94614 m -24.32508,30.2361 5.26126,0.05059 0,-67.23283 -5.26126,0 0,-3.33887 30.80872,0 c 6.34045,7e-05 14.06629,1.58519 18.417,4.75537 4.89022,3.57502 4.95508,11.45428 4.95514,17.55863 -6e-05,5.6323 0.15429,12.28821 -4.29748,16.09921 -4.2158,3.575 -11.57066,5.36247 -17.30404,5.36244 l -8.25426,0 0,26.74546 5.61538,0 0,3.33888 -29.94046,0 0,-3.33888"
           style="font-size:103.60634613px;font-style:normal;font-variant:normal;font-weight:normal;font-stretch:normal;fill:#3c4c58;fill-opacity:1;stroke:none;display:inline;font-family:Dustismo Roman;-inkscape-font-specification:Dustismo Roman"
           transform="scale(0.8345896,1.1981936)" />
        <path
           sodipodi:nodetypes="ccccccccccccc"
           id="path4620"
           d="m 185.92791,313.29895 25.5296,0 0,3.60032 -3.42817,0 0,72.44297 3.42817,0 0,3.60033 -25.5296,0 0,-3.60033 3.87715,0 0,-72.44297 -3.87715,0 0,-3.60032"
           style="font-size:111.7192688px;font-style:normal;font-variant:normal;font-weight:normal;font-stretch:normal;fill:#3c4c58;fill-opacity:1;stroke:none;display:inline;font-family:Dustismo Roman;-inkscape-font-specification:Dustismo Roman"
           transform="scale(0.896588,1.1153395)" />
        <path
           transform="scale(0.9275179,1.0781463)"
           sodipodi:nodetypes="cccccccccccccccccccccccc"
           id="path4622"
           d="m 252.88812,327.85149 0,75.36505 3.91238,2e-05 0,3.30151 -4.51452,0 -5.24844,0 -29.8278,-52.16462 0,48.44009 3.70355,0 0,3.72453 -14.08709,0 0,-3.72453 4.54565,0 0,-74.94205 -3.38551,0 0,-3.72453 12.61329,0 27.77391,48.01744 0,-44.29291 -3.73679,0 0,-3.72453 12.04459,0 0,3.72453 -3.79322,0"
           style="font-size:115.57328033px;font-style:normal;font-variant:normal;font-weight:normal;font-stretch:normal;fill:#3c4c58;fill-opacity:1;stroke:none;display:inline;font-family:Dustismo Roman;-inkscape-font-specification:Dustismo Roman" />
        <path
           sodipodi:nodetypes="ccccccccccccccsccssccccccccc"
           id="path4624"
           d="m 295.65222,345.2391 4.5555,0 c 4.55331,0 4.59639,-0.16098 4.59639,-16.59615 0,-15.66753 0.37232,-16.10961 -4.37866,-16.10961 l -4.77323,0 0,32.70576 m 4.87986,39.08472 c 3.79185,0 3.96222,0.02851 3.96222,-18.05573 0,-17.88348 0.23179,-17.89357 -3.95054,-17.89357 l -4.89154,0 0,35.9493 m 1.04166,-75.35838 c 6.55914,8e-05 11.37039,0.46859 14.43378,1.40554 4.90131,1.47769 8.46921,4.48698 10.7037,9.02787 1.44152,2.91926 2.16231,6.03666 2.16237,9.35222 -6e-05,7.89268 -3.31568,14.81244 -9.94688,18.27218 l 0.05406,0 c 4.61299,1.3335 5.64446,2.00893 8.38351,5.75699 2.73893,3.74813 1.72834,8.65859 1.7284,13.48785 -6e-05,6.81146 -0.19094,11.7668 -4.80393,15.69509 -4.36081,3.67602 -7.09197,5.92854 -14.01149,5.92854 l -32.70576,0 0,-3.5679 3.24206,0 0,-71.79048 -3.24206,0 0,-3.5679 24.00224,0"
           style="font-size:110.71302795px;font-style:normal;font-variant:normal;font-weight:normal;font-stretch:normal;fill:#3c4c58;fill-opacity:1;stroke:none;display:inline;font-family:Dustismo Roman;-inkscape-font-specification:Dustismo Roman"
           transform="scale(0.8852815,1.1295842)" />
        <path
           sodipodi:nodetypes="cccccccccccccccccccccccccc"
           id="path4626"
           d="m -401.48813,318.36505 -11.02508,-37.41198 -1.73026,-0.02005 -11.19582,37.43203 28.50261,0 m -44.67517,19.44992 0,-3.1992 5.16793,0 19.30018,-62.37519 -4.89746,-0.00585 -0.02998,-3.02723 32.06267,0 -0.04418,3.03112 -4.65779,0.00142 19.91705,62.37573 5.0695,0 0,3.1992 -30.34855,0 0,-3.1992 4.69199,0 -4.31548,-13.00231 -26.62518,0 -4.82391,13.00231 6.61101,0 0,3.1992 -17.0778,0"
           style="font-size:100.79938507px;font-style:normal;font-variant:normal;font-weight:normal;font-stretch:normal;fill:#3c4c58;fill-opacity:1;stroke:none;display:inline;font-family:Dustismo Roman;-inkscape-font-specification:Dustismo Roman"
           transform="scale(-0.7715662,1.2960651)" />
        <path
           sodipodi:nodetypes="ccccccccccccccc"
           id="path4628"
           d="m 418.28579,376.98287 8.60584,0 c 9.21675,0 17.76036,-0.0228 17.76036,-19.62581 l 3.73214,0 0.00763,23.09512 -52.59607,0 0,-3.46931 3.38731,0 0,-69.80673 -3.49244,0 0,-3.46931 26.39344,0 0,3.46931 -3.79821,0 0,69.80673"
           style="font-size:107.65374756px;font-style:normal;font-variant:normal;font-weight:normal;font-stretch:normal;fill:#3c4c58;fill-opacity:1;stroke:none;display:inline;font-family:Dustismo Roman;-inkscape-font-specification:Dustismo Roman"
           transform="scale(0.8691653,1.1505292)" />
        <path
           style="font-size:107.65374756px;font-style:normal;font-variant:normal;font-weight:normal;font-stretch:normal;fill:#3c4c58;fill-opacity:1;stroke:none;display:inline;font-family:Dustismo Roman;-inkscape-font-specification:Dustismo Roman"
           d="m 412.54447,433.7298 7.4799,0 c 8.01088,0 15.43669,-0.02623 15.43669,-22.58007 l 3.24384,0 0.00664,26.57161 -45.71468,0 0,-3.99154 2.94413,0 0,-80.31468 -3.03551,0 0,-3.99154 22.94026,0 0,3.99154 -3.30127,0 0,80.31468"
           id="path4630"
           sodipodi:nodetypes="ccccccccccccccc" />
      </g>
    </clipPath>
    <linearGradient
       inkscape:collect="always"
       xlink:href="#linearGradient4428"
       id="linearGradient4632"
       gradientUnits="userSpaceOnUse"
       gradientTransform="translate(55.573797,-288.6872)"
       x1="78.823868"
       y1="415.18066"
       x2="79.689148"
       y2="513.45148" />
    <inkscape:perspective
       id="perspective4641"
       inkscape:persp3d-origin="0.5 : 0.33333333 : 1"
       inkscape:vp_z="1 : 0.5 : 1"
       inkscape:vp_y="0 : 1000 : 0"
       inkscape:vp_x="0 : 0.5 : 1"
       sodipodi:type="inkscape:persp3d" />
    <linearGradient
       y2="513.45148"
       x2="79.689148"
       y1="415.18066"
       x1="78.823868"
       gradientTransform="translate(55.573797,-288.6872)"
       gradientUnits="userSpaceOnUse"
       id="linearGradient4654"
       xlink:href="#linearGradient4214"
       inkscape:collect="always" />
    <linearGradient
       inkscape:collect="always"
       xlink:href="#linearGradient4214"
       id="linearGradient4683"
       gradientUnits="userSpaceOnUse"
       gradientTransform="translate(55.573797,-288.6872)"
       x1="78.823868"
       y1="415.18066"
       x2="79.689148"
       y2="513.45148" />
    <linearGradient
       inkscape:collect="always"
       xlink:href="#linearGradient4428"
       id="linearGradient4685"
       gradientUnits="userSpaceOnUse"
       gradientTransform="translate(55.573797,-288.6872)"
       x1="78.823868"
       y1="415.18066"
       x2="79.689148"
       y2="513.45148" />
    <inkscape:perspective
       id="perspective4694"
       inkscape:persp3d-origin="0.5 : 0.33333333 : 1"
       inkscape:vp_z="1 : 0.5 : 1"
       inkscape:vp_y="0 : 1000 : 0"
       inkscape:vp_x="0 : 0.5 : 1"
       sodipodi:type="inkscape:persp3d" />
    <linearGradient
       id="linearGradient4741">
      <stop
         style="stop-color:#e478a4;stop-opacity:1;"
         offset="0"
         id="stop4743" />
      <stop
         id="stop4745"
         offset="0.3981764"
         style="stop-color:#edc62b;stop-opacity:1;" />
      <stop
         style="stop-color:#ffffb2;stop-opacity:1;"
         offset="0.73575282"
         id="stop4747" />
      <stop
         style="stop-color:#f4da76;stop-opacity:1;"
         offset="1"
         id="stop4749" />
    </linearGradient>
    <linearGradient
       inkscape:collect="always"
       xlink:href="#linearGradient3575"
       id="linearGradient4859"
       gradientUnits="userSpaceOnUse"
       gradientTransform="translate(0,14.976299)"
       x1="74.553787"
       y1="363.91711"
       x2="139.67003"
       y2="394.49374" />
    <linearGradient
       inkscape:collect="always"
       xlink:href="#linearGradient3600"
       id="linearGradient4861"
       gradientUnits="userSpaceOnUse"
       gradientTransform="translate(-0.3120062,-1.0409927e-8)"
       x1="140.7148"
       y1="424.94376"
       x2="184.95639"
       y2="429.62384" />
    <linearGradient
       inkscape:collect="always"
       xlink:href="#linearGradient3763"
       id="linearGradient4863"
       gradientUnits="userSpaceOnUse"
       x1="194.7271"
       y1="438.90369"
       x2="211.69669"
       y2="384.90369" />
    <linearGradient
       inkscape:collect="always"
       xlink:href="#linearGradient3693"
       id="linearGradient4865"
       gradientUnits="userSpaceOnUse"
       gradientTransform="translate(125.61415,-34.318136)"
       x1="141.66663"
       y1="443.44376"
       x2="176.45641"
       y2="395.62384" />
    <linearGradient
       inkscape:collect="always"
       xlink:href="#linearGradient3755"
       id="linearGradient4867"
       gradientUnits="userSpaceOnUse"
       x1="252.66608"
       y1="369.64188"
       x2="235.93042"
       y2="408.64188" />
    <linearGradient
       inkscape:collect="always"
       xlink:href="#linearGradient3745"
       id="linearGradient4869"
       gradientUnits="userSpaceOnUse"
       x1="334.48355"
       y1="349.80249"
       x2="311.36508"
       y2="408.80249" />
    <linearGradient
       inkscape:collect="always"
       xlink:href="#linearGradient3701"
       id="linearGradient4871"
       gradientUnits="userSpaceOnUse"
       gradientTransform="translate(1,-2.0313905e-8)"
       x1="418"
       y1="379"
       x2="449.44077"
       y2="313.31934" />
    <linearGradient
       inkscape:collect="always"
       xlink:href="#linearGradient3737"
       id="linearGradient4873"
       gradientUnits="userSpaceOnUse"
       x1="349.40012"
       y1="341.61224"
       x2="349.40012"
       y2="391.65598" />
    <linearGradient
       inkscape:collect="always"
       xlink:href="#linearGradient3717"
       id="linearGradient4875"
       gradientUnits="userSpaceOnUse"
       x1="382.8176"
       y1="325.42422"
       x2="371.27914"
       y2="388.42422" />
    <linearGradient
       inkscape:collect="always"
       xlink:href="#linearGradient3575"
       id="linearGradient4877"
       gradientUnits="userSpaceOnUse"
       gradientTransform="translate(0,14.976299)"
       x1="74.553787"
       y1="363.91711"
       x2="139.67003"
       y2="394.49374" />
    <linearGradient
       inkscape:collect="always"
       xlink:href="#linearGradient3717"
       id="linearGradient4882"
       gradientUnits="userSpaceOnUse"
       x1="382.8176"
       y1="325.42422"
       x2="371.27914"
       y2="388.42422"
       gradientTransform="translate(-421.75937,-99.985277)" />
    <linearGradient
       inkscape:collect="always"
       xlink:href="#linearGradient3737"
       id="linearGradient4885"
       gradientUnits="userSpaceOnUse"
       x1="349.40012"
       y1="341.61224"
       x2="349.40012"
       y2="391.65598"
       gradientTransform="translate(-421.75937,-99.985277)" />
    <linearGradient
       inkscape:collect="always"
       xlink:href="#linearGradient3701"
       id="linearGradient4888"
       gradientUnits="userSpaceOnUse"
       gradientTransform="translate(-420.75937,-99.985277)"
       x1="418"
       y1="379"
       x2="449.44077"
       y2="313.31934" />
    <linearGradient
       inkscape:collect="always"
       xlink:href="#linearGradient3745"
       id="linearGradient4891"
       gradientUnits="userSpaceOnUse"
       x1="334.48355"
       y1="349.80249"
       x2="311.36508"
       y2="408.80249"
       gradientTransform="translate(-421.75937,-99.985277)" />
    <linearGradient
       inkscape:collect="always"
       xlink:href="#linearGradient3755"
       id="linearGradient4894"
       gradientUnits="userSpaceOnUse"
       x1="252.66608"
       y1="369.64188"
       x2="235.93042"
       y2="408.64188"
       gradientTransform="translate(-421.75937,-99.985277)" />
    <linearGradient
       inkscape:collect="always"
       xlink:href="#linearGradient3693"
       id="linearGradient4897"
       gradientUnits="userSpaceOnUse"
       gradientTransform="translate(-296.14522,-134.30341)"
       x1="141.66663"
       y1="443.44376"
       x2="176.45641"
       y2="395.62384" />
    <linearGradient
       inkscape:collect="always"
       xlink:href="#linearGradient3763"
       id="linearGradient4900"
       gradientUnits="userSpaceOnUse"
       x1="194.7271"
       y1="438.90369"
       x2="211.69669"
       y2="384.90369"
       gradientTransform="translate(-421.75937,-99.985277)" />
    <linearGradient
       inkscape:collect="always"
       xlink:href="#linearGradient3600"
       id="linearGradient4903"
       gradientUnits="userSpaceOnUse"
       gradientTransform="translate(-422.07138,-99.985277)"
       x1="140.7148"
       y1="424.94376"
       x2="184.95639"
       y2="429.62384" />
    <linearGradient
       inkscape:collect="always"
       xlink:href="#linearGradient3575"
       id="linearGradient4906"
       gradientUnits="userSpaceOnUse"
       gradientTransform="translate(-421.75937,-85.008978)"
       x1="74.553787"
       y1="363.91711"
       x2="139.67003"
       y2="394.49374" />
    <linearGradient
       inkscape:collect="always"
       xlink:href="#linearGradient4214"
       id="linearGradient4918"
       gradientUnits="userSpaceOnUse"
       gradientTransform="translate(55.573797,-288.6872)"
       x1="78.823868"
       y1="415.18066"
       x2="79.689148"
       y2="513.45148" />
    <linearGradient
       inkscape:collect="always"
       xlink:href="#linearGradient4428"
       id="linearGradient4920"
       gradientUnits="userSpaceOnUse"
       gradientTransform="translate(55.573797,-288.6872)"
       x1="78.823868"
       y1="415.18066"
       x2="79.689148"
       y2="513.45148" />
    <linearGradient
       inkscape:collect="always"
       xlink:href="#linearGradient4924"
       id="linearGradient4922"
       gradientUnits="userSpaceOnUse"
       gradientTransform="translate(55.573797,-288.6872)"
       x1="78.823868"
       y1="415.18066"
       x2="79.689148"
       y2="513.45148" />
    <filter
       id="filter4958"
       inkscape:label="filter1">
      <feTurbulence
         id="feTurbulence4962"
         baseFrequency="0.2046511627906977"
         result="result1"
         numOctaves="10"
         type="fractalNoise"
         seed="0" />
      <feDisplacementMap
         id="feDisplacementMap4960"
         in="SourceGraphic"
         xChannelSelector="R"
         yChannelSelector="G"
         scale="0.01"
         in2="result1" />
    </filter>
    <linearGradient
       inkscape:collect="always"
       xlink:href="#linearGradient3575"
       id="linearGradient4964"
       gradientUnits="userSpaceOnUse"
       gradientTransform="translate(0,14.976299)"
       x1="74.553787"
       y1="363.91711"
       x2="139.67003"
       y2="394.49374" />
    <linearGradient
       inkscape:collect="always"
       xlink:href="#linearGradient3600"
       id="linearGradient4966"
       gradientUnits="userSpaceOnUse"
       gradientTransform="translate(-0.3120062,-1.0409927e-8)"
       x1="140.7148"
       y1="424.94376"
       x2="184.95639"
       y2="429.62384" />
    <linearGradient
       inkscape:collect="always"
       xlink:href="#linearGradient3763"
       id="linearGradient4968"
       gradientUnits="userSpaceOnUse"
       x1="194.7271"
       y1="438.90369"
       x2="211.69669"
       y2="384.90369" />
    <linearGradient
       inkscape:collect="always"
       xlink:href="#linearGradient3693"
       id="linearGradient4970"
       gradientUnits="userSpaceOnUse"
       gradientTransform="translate(125.61415,-34.318136)"
       x1="141.66663"
       y1="443.44376"
       x2="176.45641"
       y2="395.62384" />
    <linearGradient
       inkscape:collect="always"
       xlink:href="#linearGradient3755"
       id="linearGradient4972"
       gradientUnits="userSpaceOnUse"
       x1="252.66608"
       y1="369.64188"
       x2="235.93042"
       y2="408.64188" />
    <linearGradient
       inkscape:collect="always"
       xlink:href="#linearGradient3745"
       id="linearGradient4974"
       gradientUnits="userSpaceOnUse"
       x1="334.48355"
       y1="349.80249"
       x2="311.36508"
       y2="408.80249" />
    <linearGradient
       inkscape:collect="always"
       xlink:href="#linearGradient3701"
       id="linearGradient4976"
       gradientUnits="userSpaceOnUse"
       gradientTransform="translate(1,-2.0313905e-8)"
       x1="418"
       y1="379"
       x2="449.44077"
       y2="313.31934" />
    <linearGradient
       inkscape:collect="always"
       xlink:href="#linearGradient3737"
       id="linearGradient4978"
       gradientUnits="userSpaceOnUse"
       x1="349.40012"
       y1="341.61224"
       x2="349.40012"
       y2="391.65598" />
    <linearGradient
       inkscape:collect="always"
       xlink:href="#linearGradient3717"
       id="linearGradient4980"
       gradientUnits="userSpaceOnUse"
       x1="382.8176"
       y1="325.42422"
       x2="371.27914"
       y2="388.42422" />
    <linearGradient
       inkscape:collect="always"
       xlink:href="#linearGradient3575"
       id="linearGradient4982"
       gradientUnits="userSpaceOnUse"
       gradientTransform="translate(0,14.976299)"
       x1="74.553787"
       y1="363.91711"
       x2="139.67003"
       y2="394.49374" />
    <inkscape:perspective
       id="perspective2655"
       inkscape:persp3d-origin="0.5 : 0.33333333 : 1"
       inkscape:vp_z="1 : 0.5 : 1"
       inkscape:vp_y="0 : 1000 : 0"
       inkscape:vp_x="0 : 0.5 : 1"
       sodipodi:type="inkscape:persp3d" />
    <inkscape:perspective
       id="perspective3537"
       inkscape:persp3d-origin="0.5 : 0.33333333 : 1"
       inkscape:vp_z="1 : 0.5 : 1"
       inkscape:vp_y="0 : 1000 : 0"
       inkscape:vp_x="0 : 0.5 : 1"
       sodipodi:type="inkscape:persp3d" />
    <inkscape:perspective
       id="perspective2727"
       inkscape:persp3d-origin="0.5 : 0.33333333 : 1"
       inkscape:vp_z="1 : 0.5 : 1"
       inkscape:vp_y="0 : 1000 : 0"
       inkscape:vp_x="0 : 0.5 : 1"
       sodipodi:type="inkscape:persp3d" />
    <linearGradient
       inkscape:collect="always"
       xlink:href="#linearGradient4214"
       id="linearGradient2742"
       gradientUnits="userSpaceOnUse"
       gradientTransform="translate(55.573797,-288.6872)"
       x1="78.823868"
       y1="415.18066"
       x2="79.689148"
       y2="513.45148" />
    <linearGradient
       inkscape:collect="always"
       xlink:href="#linearGradient4428"
       id="linearGradient2744"
       gradientUnits="userSpaceOnUse"
       gradientTransform="translate(55.573797,-288.6872)"
       x1="78.823868"
       y1="415.18066"
       x2="79.689148"
       y2="513.45148" />
    <linearGradient
       inkscape:collect="always"
       xlink:href="#linearGradient3575"
       id="linearGradient2746"
       gradientUnits="userSpaceOnUse"
       gradientTransform="translate(0,14.976299)"
       x1="74.553787"
       y1="363.91711"
       x2="139.67003"
       y2="394.49374" />
    <linearGradient
       inkscape:collect="always"
       xlink:href="#linearGradient3600"
       id="linearGradient2748"
       gradientUnits="userSpaceOnUse"
       gradientTransform="translate(-0.3120062,-1.0409927e-8)"
       x1="140.7148"
       y1="424.94376"
       x2="184.95639"
       y2="429.62384" />
    <linearGradient
       inkscape:collect="always"
       xlink:href="#linearGradient3763"
       id="linearGradient2750"
       gradientUnits="userSpaceOnUse"
       x1="194.7271"
       y1="438.90369"
       x2="211.69669"
       y2="384.90369" />
    <linearGradient
       inkscape:collect="always"
       xlink:href="#linearGradient3693"
       id="linearGradient2752"
       gradientUnits="userSpaceOnUse"
       gradientTransform="translate(125.61415,-34.318136)"
       x1="141.66663"
       y1="443.44376"
       x2="176.45641"
       y2="395.62384" />
    <linearGradient
       inkscape:collect="always"
       xlink:href="#linearGradient3755"
       id="linearGradient2754"
       gradientUnits="userSpaceOnUse"
       x1="252.66608"
       y1="369.64188"
       x2="235.93042"
       y2="408.64188" />
    <linearGradient
       inkscape:collect="always"
       xlink:href="#linearGradient3745"
       id="linearGradient2756"
       gradientUnits="userSpaceOnUse"
       x1="334.48355"
       y1="349.80249"
       x2="311.36508"
       y2="408.80249" />
    <linearGradient
       inkscape:collect="always"
       xlink:href="#linearGradient3701"
       id="linearGradient2758"
       gradientUnits="userSpaceOnUse"
       gradientTransform="translate(1,-2.0313905e-8)"
       x1="418"
       y1="379"
       x2="449.44077"
       y2="313.31934" />
    <linearGradient
       inkscape:collect="always"
       xlink:href="#linearGradient3737"
       id="linearGradient2760"
       gradientUnits="userSpaceOnUse"
       x1="349.40012"
       y1="341.61224"
       x2="349.40012"
       y2="391.65598" />
    <linearGradient
       inkscape:collect="always"
       xlink:href="#linearGradient3717"
       id="linearGradient2762"
       gradientUnits="userSpaceOnUse"
       x1="382.8176"
       y1="325.42422"
       x2="371.27914"
       y2="388.42422" />
    <linearGradient
       inkscape:collect="always"
       xlink:href="#linearGradient3575"
       id="linearGradient2764"
       gradientUnits="userSpaceOnUse"
       gradientTransform="translate(0,14.976299)"
       x1="74.553787"
       y1="363.91711"
       x2="139.67003"
       y2="394.49374" />
    <linearGradient
       inkscape:collect="always"
       xlink:href="#linearGradient4924"
       id="linearGradient2766"
       gradientUnits="userSpaceOnUse"
       gradientTransform="translate(55.573797,-288.6872)"
       x1="78.823868"
       y1="415.18066"
       x2="79.689148"
       y2="513.45148" />
    <linearGradient
       inkscape:collect="always"
       xlink:href="#linearGradient4214"
       id="linearGradient2807"
       gradientUnits="userSpaceOnUse"
       gradientTransform="translate(55.573797,-288.6872)"
       x1="78.823868"
       y1="415.18066"
       x2="79.689148"
       y2="513.45148" />
    <linearGradient
       inkscape:collect="always"
       xlink:href="#linearGradient4428"
       id="linearGradient2809"
       gradientUnits="userSpaceOnUse"
       gradientTransform="translate(55.573797,-288.6872)"
       x1="78.823868"
       y1="415.18066"
       x2="79.689148"
       y2="513.45148" />
    <linearGradient
       inkscape:collect="always"
       xlink:href="#linearGradient3575"
       id="linearGradient2811"
       gradientUnits="userSpaceOnUse"
       gradientTransform="translate(0,14.976299)"
       x1="74.553787"
       y1="363.91711"
       x2="139.67003"
       y2="394.49374" />
    <linearGradient
       inkscape:collect="always"
       xlink:href="#linearGradient3600"
       id="linearGradient2813"
       gradientUnits="userSpaceOnUse"
       gradientTransform="translate(-0.3120062,-1.0409927e-8)"
       x1="140.7148"
       y1="424.94376"
       x2="184.95639"
       y2="429.62384" />
    <linearGradient
       inkscape:collect="always"
       xlink:href="#linearGradient3763"
       id="linearGradient2815"
       gradientUnits="userSpaceOnUse"
       x1="194.7271"
       y1="438.90369"
       x2="211.69669"
       y2="384.90369" />
    <linearGradient
       inkscape:collect="always"
       xlink:href="#linearGradient3693"
       id="linearGradient2817"
       gradientUnits="userSpaceOnUse"
       gradientTransform="translate(125.61415,-34.318136)"
       x1="141.66663"
       y1="443.44376"
       x2="176.45641"
       y2="395.62384" />
    <linearGradient
       inkscape:collect="always"
       xlink:href="#linearGradient3755"
       id="linearGradient2819"
       gradientUnits="userSpaceOnUse"
       x1="252.66608"
       y1="369.64188"
       x2="235.93042"
       y2="408.64188" />
    <linearGradient
       inkscape:collect="always"
       xlink:href="#linearGradient3745"
       id="linearGradient2821"
       gradientUnits="userSpaceOnUse"
       x1="334.48355"
       y1="349.80249"
       x2="311.36508"
       y2="408.80249" />
    <linearGradient
       inkscape:collect="always"
       xlink:href="#linearGradient3701"
       id="linearGradient2823"
       gradientUnits="userSpaceOnUse"
       gradientTransform="translate(1,-2.0313905e-8)"
       x1="418"
       y1="379"
       x2="449.44077"
       y2="313.31934" />
    <linearGradient
       inkscape:collect="always"
       xlink:href="#linearGradient3737"
       id="linearGradient2825"
       gradientUnits="userSpaceOnUse"
       x1="349.40012"
       y1="341.61224"
       x2="349.40012"
       y2="391.65598" />
    <linearGradient
       inkscape:collect="always"
       xlink:href="#linearGradient3717"
       id="linearGradient2827"
       gradientUnits="userSpaceOnUse"
       x1="382.8176"
       y1="325.42422"
       x2="371.27914"
       y2="388.42422" />
    <linearGradient
       inkscape:collect="always"
       xlink:href="#linearGradient3575"
       id="linearGradient2829"
       gradientUnits="userSpaceOnUse"
       gradientTransform="translate(0,14.976299)"
       x1="74.553787"
       y1="363.91711"
       x2="139.67003"
       y2="394.49374" />
    <linearGradient
       inkscape:collect="always"
       xlink:href="#linearGradient4924"
       id="linearGradient2831"
       gradientUnits="userSpaceOnUse"
       gradientTransform="translate(55.573797,-288.6872)"
       x1="78.823868"
       y1="415.18066"
       x2="79.689148"
       y2="513.45148" />
  </defs>
  <sodipodi:namedview
     inkscape:window-height="825"
     inkscape:window-width="1439"
     inkscape:pageshadow="2"
     inkscape:pageopacity="0.0"
     guidetolerance="10.0"
     gridtolerance="10.0"
     objecttolerance="10.0"
     borderopacity="1.0"
     bordercolor="#666666"
     pagecolor="#ffffff"
     id="base"
     showgrid="false"
     inkscape:zoom="2.9126594"
     inkscape:cx="229.687"
     inkscape:cy="100.66405"
     inkscape:window-x="0"
     inkscape:window-y="25"
     inkscape:current-layer="layer2" />
  <g
     inkscape:groupmode="layer"
     id="layer2"
     inkscape:label="vetorizado"
     style="display:inline"
     transform="translate(-58.332375,-291.1485)">
    <rect
       style="opacity:1;fill:#7898a4;fill-opacity:1;fill-rule:evenodd;stroke:none"
       id="background"
       width="459.37399"
       height="201.32809"
       x="58.332375"
       y="291.1485"
       inkscape:label="background" />
    <g
       id="pinball"
       transform="translate(7.4995794,-1.7856495)"
       style="fill:#3c4c58;fill-opacity:1;display:inline"
       inkscape:label="PINBALL">
      <path
         sodipodi:nodetypes="cccccccccccccscccccccc"
         id="text2625"
         d="m 170.89777,331.71869 5.38669,0 c 6.11686,0 4.56126,-0.16804 4.56126,-17.92042 0,-19.03144 2.13898,-19.0763 -5.7754,-19.0763 l -4.17255,0.05058 0,36.94614 m -24.32508,30.2361 5.26126,0.05059 0,-67.23283 -5.26126,0 0,-3.33887 30.80872,0 c 6.34045,7e-05 14.06629,1.58519 18.417,4.75537 4.89022,3.57502 4.95508,11.45428 4.95514,17.55863 -6e-05,5.6323 0.15429,12.28821 -4.29748,16.09921 -4.2158,3.575 -11.57066,5.36247 -17.30404,5.36244 l -8.25426,0 0,26.74546 5.61538,0 0,3.33888 -29.94046,0 0,-3.33888"
         style="font-size:103.60634613px;font-style:normal;font-variant:normal;font-weight:normal;font-stretch:normal;fill:#3c4c58;fill-opacity:1;stroke:none;display:inline;font-family:Dustismo Roman;-inkscape-font-specification:Dustismo Roman"
         transform="scale(0.8345896,1.1981936)" />
      <path
         sodipodi:nodetypes="ccccccccccccc"
         id="text2651"
         d="m 185.92791,313.29895 25.5296,0 0,3.60032 -3.42817,0 0,72.44297 3.42817,0 0,3.60033 -25.5296,0 0,-3.60033 3.87715,0 0,-72.44297 -3.87715,0 0,-3.60032"
         style="font-size:111.7192688px;font-style:normal;font-variant:normal;font-weight:normal;font-stretch:normal;fill:#3c4c58;fill-opacity:1;stroke:none;display:inline;font-family:Dustismo Roman;-inkscape-font-specification:Dustismo Roman"
         transform="scale(0.896588,1.1153395)" />
      <path
         transform="scale(0.9275179,1.0781463)"
         sodipodi:nodetypes="cccccccccccccccccccccccc"
         id="text2663"
         d="m 252.88812,327.85149 0,75.36505 3.91238,2e-05 0,3.30151 -4.51452,0 -5.24844,0 -29.8278,-52.16462 0,48.44009 3.70355,0 0,3.72453 -14.08709,0 0,-3.72453 4.54565,0 0,-74.94205 -3.38551,0 0,-3.72453 12.61329,0 27.77391,48.01744 0,-44.29291 -3.73679,0 0,-3.72453 12.04459,0 0,3.72453 -3.79322,0"
         style="font-size:115.57328033px;font-style:normal;font-variant:normal;font-weight:normal;font-stretch:normal;fill:#3c4c58;fill-opacity:1;stroke:none;display:inline;font-family:Dustismo Roman;-inkscape-font-specification:Dustismo Roman" />
      <path
         sodipodi:nodetypes="ccccccccccccccsccssccccccccc"
         id="text2675"
         d="m 295.65222,345.2391 4.5555,0 c 4.55331,0 4.59639,-0.16098 4.59639,-16.59615 0,-15.66753 0.37232,-16.10961 -4.37866,-16.10961 l -4.77323,0 0,32.70576 m 4.87986,39.08472 c 3.79185,0 3.96222,0.02851 3.96222,-18.05573 0,-17.88348 0.23179,-17.89357 -3.95054,-17.89357 l -4.89154,0 0,35.9493 m 1.04166,-75.35838 c 6.55914,8e-05 11.37039,0.46859 14.43378,1.40554 4.90131,1.47769 8.46921,4.48698 10.7037,9.02787 1.44152,2.91926 2.16231,6.03666 2.16237,9.35222 -6e-05,7.89268 -3.31568,14.81244 -9.94688,18.27218 l 0.05406,0 c 4.61299,1.3335 5.64446,2.00893 8.38351,5.75699 2.73893,3.74813 1.72834,8.65859 1.7284,13.48785 -6e-05,6.81146 -0.19094,11.7668 -4.80393,15.69509 -4.36081,3.67602 -7.09197,5.92854 -14.01149,5.92854 l -32.70576,0 0,-3.5679 3.24206,0 0,-71.79048 -3.24206,0 0,-3.5679 24.00224,0"
         style="font-size:110.71302795px;font-style:normal;font-variant:normal;font-weight:normal;font-stretch:normal;fill:#3c4c58;fill-opacity:1;stroke:none;display:inline;font-family:Dustismo Roman;-inkscape-font-specification:Dustismo Roman"
         transform="scale(0.8852815,1.1295842)" />
      <path
         sodipodi:nodetypes="cccccccccccccccccccccccccc"
         id="text2687"
         d="m -401.48813,318.36505 -11.02508,-37.41198 -1.73026,-0.02005 -11.19582,37.43203 28.50261,0 m -44.67517,19.44992 0,-3.1992 5.16793,0 19.30018,-62.37519 -4.89746,-0.00585 -0.02998,-3.02723 32.06267,0 -0.04418,3.03112 -4.65779,0.00142 19.91705,62.37573 5.0695,0 0,3.1992 -30.34855,0 0,-3.1992 4.69199,0 -4.31548,-13.00231 -26.62518,0 -4.82391,13.00231 6.61101,0 0,3.1992 -17.0778,0"
         style="font-size:100.79938507px;font-style:normal;font-variant:normal;font-weight:normal;font-stretch:normal;fill:#3c4c58;fill-opacity:1;stroke:none;display:inline;font-family:Dustismo Roman;-inkscape-font-specification:Dustismo Roman"
         transform="scale(-0.7715662,1.2960651)" />
      <path
         sodipodi:nodetypes="ccccccccccccccc"
         id="text2699"
         d="m 418.28579,376.98287 8.60584,0 c 9.21675,0 17.76036,-0.0228 17.76036,-19.62581 l 3.73214,0 0.00763,23.09512 -52.59607,0 0,-3.46931 3.38731,0 0,-69.80673 -3.49244,0 0,-3.46931 26.39344,0 0,3.46931 -3.79821,0 0,69.80673"
         style="font-size:107.65374756px;font-style:normal;font-variant:normal;font-weight:normal;font-stretch:normal;fill:#3c4c58;fill-opacity:1;stroke:none;display:inline;font-family:Dustismo Roman;-inkscape-font-specification:Dustismo Roman"
         transform="scale(0.8691653,1.1505292)" />
      <path
         style="font-size:107.65374756px;font-style:normal;font-variant:normal;font-weight:normal;font-stretch:normal;fill:#3c4c58;fill-opacity:1;stroke:none;display:inline;font-family:Dustismo Roman;-inkscape-font-specification:Dustismo Roman"
         d="m 412.54447,433.7298 7.4799,0 c 8.01088,0 15.43669,-0.02623 15.43669,-22.58007 l 3.24384,0 0.00664,26.57161 -45.71468,0 0,-3.99154 2.94413,0 0,-80.31468 -3.03551,0 0,-3.99154 22.94026,0 0,3.99154 -3.30127,0 0,80.31468"
         id="path2775"
         sodipodi:nodetypes="ccccccccccccccc" />
    </g>
    <path
       id="path4853"
       style="fill:#788898;fill-opacity:1;fill-rule:evenodd;stroke:none;display:inline"
       d="m 371.66758,374.55937 c 0,0 5.20838,-0.07027 14.90647,-3.40159 6.7127,-2.30583 18.19217,-6.54285 19.34353,-5.47341 1.15136,1.06944 1.2107,1.50187 1,3 -0.2107,1.49813 -5.19539,1.53533 -11.20475,2.96216 -3.97547,0.94392 -8.16509,2.8919 -12.40403,3.75984 -4.28723,0.87782 -8.45201,1.78396 -10.76622,2.278 -2.42218,0.51709 2.47049,11.31652 8.375,13.75 5.94951,2.45202 13.57976,1.11315 20.5,-4.125 10.99513,-8.32256 5.47259,-14.7744 8.375,-15.5 l 1,-0.25 c 3.09358,-0.7734 2.06304,7.19807 0.75,9.75 -2.5748,5.0042 -6.91863,8.53623 -13.375,12.25 -6.40166,3.6823 -16.95453,2.08226 -22.375,-1.75 -5.09474,-3.60197 -10.63317,-10.99776 -8.375,-18.625 2.22413,-7.51224 8.22791,-11.82636 12.75,-14.5 5.70518,-3.37313 20.55795,-5.4818 19.75,-2.25 l -0.25,1 c -0.6771,2.70839 -11.45465,-0.72542 -21.375,5.5 -5.53972,3.4764 -8.90141,11.52223 -6.625,11.625 z m -17.125,-7.5 c 0.96946,-0.80573 2.38906,-1.97327 3.75,-1.125 1.04655,0.65231 0.68276,1.94952 1.57586,5.35043 0.65873,2.50848 1.4896,5.56205 2.38051,8.62037 1.52622,5.23916 3.34647,10.07996 4.2051,14.22891 0.66354,3.20625 0.67855,5.92386 0.21353,6.17529 -0.89309,0.48288 -1.65098,-0.03433 -3.375,-0.25 -0.75991,-0.31805 -0.49235,-3.98171 -1.5077,-9.22198 -0.91719,-4.73366 -2.70024,-11.50383 -5.62433,-17.63157 -1.69284,-3.54754 -2.04837,-5.78874 -1.61797,-6.14645 z m -3.625,-8.25 c -0.15823,1.02985 0.61313,3.21863 1.75,3 0,0 2.53628,0.06521 3.25,-0.625 0.60817,-0.58814 1.22463,-2.02604 0.625,-2.75 l -1.1143,-1.34535 c -1.75489,-1.64251 -3.71288,0.06158 -4.5107,1.72035 z m 69.14292,30.36292 c -0.76418,-0.52499 -0.04178,-1.57355 1.34188,-1.57404 7.04893,-1.08624 22.37751,-1.78104 25.49066,-16.33383 0.85882,-6.16748 -2.05419,-11.56809 -6.94906,-15.22445 -4.89488,-3.65636 -9.15147,-4.9181 -13.26588,-5.3379 -5.7818,-0.58993 -12.9999,2.15871 -19.34735,2.2155 -0.93598,0.00837 -0.98533,-2.52593 -0.0625,-2.68257 5.30302,-0.90011 18.16461,-4.03365 26.36726,-6.56938 5.09865,-1.57617 6.75621,-2.11863 8.44947,-3.60083 1.69326,-1.4822 3.8357,1.1888 3.30855,2.43157 -1.22396,2.8855 -10.22203,2.03071 -15.09784,5.11908 l -0.68602,0.43453 c -2.29796,1.45555 10.91222,1.92619 17.28238,10.73371 6.16882,8.52914 4.11506,20.4714 -4.05148,25.29191 -7.05584,4.16489 -19.24518,7.52514 -22.78007,5.0967 z m -97.57568,28.80249 c -0.76418,-0.52499 -0.04178,-1.57355 1.34188,-1.57404 7.04893,-1.08624 22.37751,-1.78104 25.49066,-16.33383 0.85882,-6.16748 -2.05419,-11.56809 -6.94906,-15.22445 -4.89488,-3.65636 -9.15147,-4.9181 -13.26588,-5.3379 -5.7818,-0.58993 -12.9999,2.15871 -19.34735,2.2155 -0.93598,0.00837 -0.98533,-2.52593 -0.0625,-2.68257 5.30302,-0.90011 18.16461,-4.03365 26.36726,-6.56938 5.09865,-1.57617 6.75621,-2.11863 8.44947,-3.60083 1.69326,-1.4822 3.8357,1.1888 3.30855,2.43157 -1.22396,2.8855 -10.22203,2.03071 -15.09784,5.11908 l -0.68602,0.43453 c -2.29796,1.45555 10.91222,1.92619 17.28238,10.73371 6.16882,8.52914 4.11506,20.4714 -4.05148,25.29191 -7.05584,4.16489 -19.24518,7.52514 -22.78007,5.0967 z m -92.77616,-13.88965 c 0,1.88381 9.77114,-0.55755 15.80663,-2.84403 1.21283,-0.54579 1.83365,0.14255 2.01812,0.56316 2.61356,5.95919 5.27034,14.75852 6.65446,20.91087 1.13995,5.067 0.11116,8.04138 1.36378,8.25932 l 1.5757,0.27416 c 2.35235,0.40929 -1.6727,-19.2829 -6.98282,-30.10995 -0.24186,-0.49314 -0.35195,-1.21411 0.34256,-1.71468 2.14884,-1.19817 11.33108,-3.60716 16.8351,-4.52214 2.14071,-0.35586 3.62489,-1.10536 3.64528,-1.50177 0.06537,-1.27066 -0.44469,-1.29349 -1.79589,-1.71948 -1.09045,-0.34379 -11.87291,2.03161 -19.54941,5.55885 -11.31364,5.19845 -19.91351,3.30999 -19.91351,5.78369 z m 41.11116,15.68862 c 0,0 0.75568,0.98694 1.96419,0.15778 10.42742,-9.47824 27.01202,-22.33222 43.19162,-16.0817 -0.30297,-8.84462 -7.66924,-18.3592 -16.9424,-17.75265 -13.45238,0.87991 -22.59462,19.94661 -28.21341,33.67657 z m -3.99646,6.89425 c -0.14037,0.73244 0.858,1.12057 2.23014,0.17915 4.8822,-5.62153 24.28929,-23.49213 38.68169,-22.37059 8.73132,0.6804 8.73125,5.41771 9.76202,10.83808 0.20063,1.05502 2.28654,0.78907 2.36721,0.00413 2.22434,-21.64387 -10.9217,-33.33232 -21.45043,-32.64365 -15.2738,0.99904 -28.39932,27.34116 -31.59063,43.99288 z m -76.90217,-14.27684 c -0.85501,-1.57979 2.13823,-2.45525 3.24961,-1.77003 1.94638,1.20005 3.97288,10.183 5.75956,18.46236 -1.01018,-6.06575 6.49727,-25.89778 21.99643,-24.18048 20.00709,2.21676 20.33129,31.4943 18.20375,31.09218 l -0.9605,-0.18153 c -1.71376,-0.32391 -0.80816,-27.3473 -18.80327,-27.16658 -22.13858,0.22234 -17.58294,35.28022 -17.62836,35.56871 -0.04542,0.28849 -2.36016,1.10117 -2.62427,-0.77703 -0.04856,-0.34531 -0.93245,-7.43636 -3.33597,-15.58324 -1.41446,-4.79442 -3.55897,-11.21835 -5.85698,-15.46436 z m -45.02753,41.70072 c 0,0 0.75568,0.98694 1.96419,0.15778 10.42742,-9.47824 27.01202,-22.33222 43.19162,-16.0817 -0.30297,-8.84462 -7.66924,-18.3592 -16.9424,-17.75265 -13.45238,0.87991 -22.59462,19.94661 -28.21341,33.67657 z m -3.99646,6.89425 c 0,0 0.858,1.12057 2.23014,0.17915 4.8822,-5.62153 24.28929,-23.49213 38.68169,-22.37059 8.73132,0.6804 8.73125,5.41771 9.76202,10.83808 0.20063,1.05502 2.28654,0.78907 2.36721,0.00413 2.22434,-21.64387 -10.9217,-33.33232 -21.45043,-32.64365 -15.2738,0.99904 -28.39932,27.34116 -31.59063,43.99288 z m 6.73617,-109.84021 c -3.45343,0.36798 -70.0558,26.14132 -66.32936,50.16902 2.04817,13.20638 63.78382,14.14403 63.64927,18.40836 -0.14437,4.57604 -27.37455,1.62071 -30.88861,10.29621 -4.68993,11.57848 22.91064,37.06767 20.70836,33.66659 l -0.86746,-1.33966 c -1.80852,-2.79298 -20.12839,-25.39108 -15.1891,-31.42935 6.45624,-4.71246 34.35314,-2.08681 34.97299,-8.69773 1.16026,-12.37454 -62.29736,-11.80577 -64.09047,-22.57207 -1.8327,-11.00405 13.6134,-24.0582 32.81049,-34.69325 11.24749,-6.23103 29.81578,-14.2974 27.5979,-14.06108 z" />
    <g
       id="g4676"
       transform="translate(8.1716872,170.77372)">
      <rect
         style="opacity:1;fill:url(#linearGradient2807);fill-opacity:1;fill-rule:evenodd;stroke:none;display:inline"
         id="rect4674"
         width="453.16376"
         height="168.97484"
         x="-25.627075"
         y="85.682579"
         transform="matrix(0.9673628,-0.2533953,0.2533953,0.9673628,11.256291,90.357292)"
         clip-path="url(#clipPath4238)" />
      <g
         transform="translate(43.720045,-7.7567837)"
         clip-path="url(#clipPath4614)"
         id="g4590">
        <g
           id="g4594">
          <rect
             clip-path="url(#clipPath4238)"
             transform="matrix(0.9673628,-0.2533953,0.2533953,0.9673628,-32.463755,98.11407)"
             y="85.682579"
             x="-25.627075"
             height="168.97484"
             width="453.16376"
             id="rect4540"
             style="fill:url(#linearGradient2809);fill-opacity:1;fill-rule:evenodd;stroke:none" />
          <path
             d="m 319.78898,211.55737 c 0,0 5.20838,-0.07027 14.90647,-3.40159 6.7127,-2.30583 18.19217,-6.54285 19.34353,-5.47341 1.15136,1.06944 1.2107,1.50187 1,3 -0.2107,1.49813 -5.19539,1.53533 -11.20475,2.96216 -3.97547,0.94392 -8.16509,2.8919 -12.40403,3.75984 -4.28723,0.87782 -8.45201,1.78396 -10.76622,2.278 -2.42218,0.51709 2.47049,11.31652 8.375,13.75 5.94951,2.45202 13.57976,1.11315 20.5,-4.125 10.99513,-8.32256 5.47259,-14.7744 8.375,-15.5 l 1,-0.25 c 3.09358,-0.7734 2.06304,7.19807 0.75,9.75 -2.5748,5.0042 -6.91863,8.53623 -13.375,12.25 -6.40166,3.6823 -16.95453,2.08226 -22.375,-1.75 -5.09474,-3.60197 -10.63317,-10.99776 -8.375,-18.625 2.22413,-7.51224 8.22791,-11.82636 12.75,-14.5 5.70518,-3.37313 20.55795,-5.4818 19.75,-2.25 l -0.25,1 c -0.6771,2.70839 -11.45465,-0.72542 -21.375,5.5 -5.53972,3.4764 -8.90141,11.52223 -6.625,11.625 z m -17.125,-7.5 c 0.96946,-0.80573 2.38906,-1.97327 3.75,-1.125 1.04655,0.65231 0.68276,1.94952 1.57586,5.35043 0.65873,2.50848 1.4896,5.56205 2.38051,8.62037 1.52622,5.23916 3.34647,10.07996 4.2051,14.22891 0.66354,3.20625 0.67855,5.92386 0.21353,6.17529 -0.89309,0.48288 -1.65098,-0.03433 -3.375,-0.25 -0.75991,-0.31805 -0.49235,-3.98171 -1.5077,-9.22198 -0.91719,-4.73366 -2.70024,-11.50383 -5.62433,-17.63157 -1.69284,-3.54754 -2.04837,-5.78874 -1.61797,-6.14645 z m -3.625,-8.25 c -0.15823,1.02985 0.61313,3.21863 1.75,3 0,0 2.53628,0.06521 3.25,-0.625 0.60817,-0.58814 1.22463,-2.02604 0.625,-2.75 l -1.1143,-1.34535 c -1.75489,-1.64251 -3.71288,0.06158 -4.5107,1.72035 z m 69.14292,30.36292 c -0.76418,-0.52499 -0.04178,-1.57355 1.34188,-1.57404 7.04893,-1.08624 22.37751,-1.78104 25.49066,-16.33383 0.85882,-6.16748 -2.05419,-11.56809 -6.94906,-15.22445 -4.89488,-3.65636 -9.15147,-4.9181 -13.26588,-5.3379 -5.7818,-0.58993 -12.9999,2.15871 -19.34735,2.2155 -0.93598,0.00837 -0.98533,-2.52593 -0.0625,-2.68257 5.30302,-0.90011 18.16461,-4.03365 26.36726,-6.56938 5.09865,-1.57617 6.75621,-2.11863 8.44947,-3.60083 1.69326,-1.4822 3.8357,1.1888 3.30855,2.43157 -1.22396,2.8855 -10.22203,2.03071 -15.09784,5.11908 l -0.68602,0.43453 c -2.29796,1.45555 10.91222,1.92619 17.28238,10.73371 6.16882,8.52914 4.11506,20.4714 -4.05148,25.29191 -7.05584,4.16489 -19.24518,7.52514 -22.78007,5.0967 z m -97.57568,28.80249 c -0.76418,-0.52499 -0.04178,-1.57355 1.34188,-1.57404 7.04893,-1.08624 22.37751,-1.78104 25.49066,-16.33383 0.85882,-6.16748 -2.05419,-11.56809 -6.94906,-15.22445 -4.89488,-3.65636 -9.15147,-4.9181 -13.26588,-5.3379 -5.7818,-0.58993 -12.9999,2.15871 -19.34735,2.2155 -0.93598,0.00837 -0.98533,-2.52593 -0.0625,-2.68257 5.30302,-0.90011 18.16461,-4.03365 26.36726,-6.56938 5.09865,-1.57617 6.75621,-2.11863 8.44947,-3.60083 1.69326,-1.4822 3.8357,1.1888 3.30855,2.43157 -1.22396,2.8855 -10.22203,2.03071 -15.09784,5.11908 l -0.68602,0.43453 c -2.29796,1.45555 10.91222,1.92619 17.28238,10.73371 6.16882,8.52914 4.11506,20.4714 -4.05148,25.29191 -7.05584,4.16489 -19.24518,7.52514 -22.78007,5.0967 z m -92.77616,-13.88965 c 0,1.88381 9.77114,-0.55755 15.80663,-2.84403 1.21283,-0.54579 1.83365,0.14255 2.01812,0.56316 2.61356,5.95919 5.27034,14.75852 6.65446,20.91087 1.13995,5.067 0.11116,8.04138 1.36378,8.25932 l 1.5757,0.27416 c 2.35235,0.40929 -1.6727,-19.2829 -6.98282,-30.10995 -0.24186,-0.49314 -0.35195,-1.21411 0.34256,-1.71468 2.14884,-1.19817 11.33108,-3.60716 16.8351,-4.52214 2.14071,-0.35586 3.62489,-1.10536 3.64528,-1.50177 0.06537,-1.27066 -0.44469,-1.29349 -1.79589,-1.71948 -1.09045,-0.34379 -11.87291,2.03161 -19.54941,5.55885 -11.31364,5.19845 -19.91351,3.30999 -19.91351,5.78369 z m 41.11116,15.68862 c 0,0 0.75568,0.98694 1.96419,0.15778 10.42742,-9.47824 27.01202,-22.33222 43.19162,-16.0817 -0.30297,-8.84462 -7.66924,-18.3592 -16.9424,-17.75265 -13.45238,0.87991 -22.59462,19.94661 -28.21341,33.67657 z m -3.99646,6.89425 c -0.14037,0.73244 0.858,1.12057 2.23014,0.17915 4.8822,-5.62153 24.28929,-23.49213 38.68169,-22.37059 8.73132,0.6804 8.73125,5.41771 9.76202,10.83808 0.20063,1.05502 2.28654,0.78907 2.36721,0.00413 2.22434,-21.64387 -10.9217,-33.33232 -21.45043,-32.64365 -15.2738,0.99904 -28.39932,27.34116 -31.59063,43.99288 z m -76.90217,-14.27684 c -0.85501,-1.57979 2.13823,-2.45525 3.24961,-1.77003 1.94638,1.20005 3.97288,10.183 5.75956,18.46236 -1.01018,-6.06575 6.49727,-25.89778 21.99643,-24.18048 20.00709,2.21676 20.33129,31.4943 18.20375,31.09218 l -0.9605,-0.18153 c -1.71376,-0.32391 -0.80816,-27.3473 -18.80327,-27.16658 -22.13858,0.22234 -17.58294,35.28022 -17.62836,35.56871 -0.04542,0.28849 -2.36016,1.10117 -2.62427,-0.77703 -0.04856,-0.34531 -0.93245,-7.43636 -3.33597,-15.58324 -1.41446,-4.79442 -3.55897,-11.21835 -5.85698,-15.46436 z m -45.02753,41.70072 c 0,0 0.75568,0.98694 1.96419,0.15778 10.42742,-9.47824 27.01202,-22.33222 43.19162,-16.0817 -0.30297,-8.84462 -7.66924,-18.3592 -16.9424,-17.75265 -13.45238,0.87991 -22.59462,19.94661 -28.21341,33.67657 z m -3.99646,6.89425 c 0,0 0.858,1.12057 2.23014,0.17915 4.8822,-5.62153 24.28929,-23.49213 38.68169,-22.37059 8.73132,0.6804 8.73125,5.41771 9.76202,10.83808 0.20063,1.05502 2.28654,0.78907 2.36721,0.00413 2.22434,-21.64387 -10.9217,-33.33232 -21.45043,-32.64365 -15.2738,0.99904 -28.39932,27.34116 -31.59063,43.99288 z m 6.73617,-109.84021 c -3.45343,0.36798 -70.0558,26.14132 -66.32936,50.16902 2.04817,13.20638 63.78382,14.14403 63.64927,18.40836 -0.14437,4.57604 -27.37455,1.62071 -30.88861,10.29621 -4.68993,11.57848 22.91064,37.06767 20.70836,33.66659 l -0.86746,-1.33966 c -1.80852,-2.79298 -20.12839,-25.39108 -15.1891,-31.42935 6.45624,-4.71246 34.35314,-2.08681 34.97299,-8.69773 1.16026,-12.37454 -62.29737,-11.80577 -64.09047,-22.57207 -1.8327,-11.00405 13.6134,-24.0582 32.81049,-34.69325 11.24749,-6.23103 29.81578,-14.2974 27.5979,-14.06108 z"
             style="fill:#000000;fill-opacity:1;fill-rule:evenodd;stroke:none;display:inline"
             id="path4542" />
        </g>
      </g>
    </g>
    <g
       style="display:inline"
       id="fantasies"
       inkscape:label="Fantasies"
       transform="translate(7.4995797,-2.4096652)">
      <path
         sodipodi:nodetypes="cszssscsssss"
         id="path2795"
         d="m 138.09079,336.83655 c -3.45343,0.36798 -70.055797,26.14132 -66.329359,50.16902 2.048167,13.20638 63.783819,14.14403 63.649269,18.40836 -0.14437,4.57604 -27.37455,1.62071 -30.88861,10.29621 -4.689932,11.57848 22.91064,37.06767 20.70836,33.66659 l -0.86746,-1.33966 c -1.80852,-2.79298 -20.12839,-25.39108 -15.1891,-31.42935 6.45624,-4.71246 34.35314,-2.08681 34.97299,-8.69773 1.16026,-12.37454 -62.297363,-11.80577 -64.090466,-22.57207 -1.832699,-11.00405 13.613396,-24.0582 32.810486,-34.69325 11.24749,-6.23103 29.81578,-14.2974 27.5979,-14.06108 z"
         style="fill:url(#linearGradient2811);fill-opacity:1;stroke:none" />
      <path
         d="m 135.35108,439.78251 c 0,0 0.75568,0.98694 1.96419,0.15778 10.42742,-9.47824 27.01202,-22.33222 43.19162,-16.0817 -0.30297,-8.84462 -7.66924,-18.3592 -16.9424,-17.75265 -13.45238,0.87991 -22.59462,19.94661 -28.21341,33.67657 z m -3.99646,6.89425 c 0,0 0.858,1.12057 2.23014,0.17915 4.8822,-5.62153 24.28929,-23.49213 38.68169,-22.37059 8.73132,0.6804 8.73125,5.41771 9.76202,10.83808 0.20063,1.05502 2.28654,0.78907 2.36721,0.00413 2.22434,-21.64387 -10.9217,-33.33232 -21.45043,-32.64365 -15.2738,0.99904 -28.39932,27.34116 -31.59063,43.99288 z"
         style="fill:url(#linearGradient2813);fill-opacity:1;fill-rule:evenodd;stroke:none"
         id="path3589"
         sodipodi:nodetypes="cccscccssssc" />
      <path
         sodipodi:nodetypes="cscsssscsss"
         id="path3620"
         d="m 180.37861,398.08179 c -0.85501,-1.57979 2.13823,-2.45525 3.24961,-1.77003 1.94638,1.20005 3.97288,10.183 5.75956,18.46236 -1.01018,-6.06575 6.49727,-25.89778 21.99643,-24.18048 20.00709,2.21676 20.33129,31.4943 18.20375,31.09218 l -0.9605,-0.18153 c -1.71376,-0.32391 -0.80816,-27.3473 -18.80327,-27.16658 -22.13858,0.22234 -17.58294,35.28022 -17.62836,35.56871 -0.04542,0.28849 -2.36016,1.10117 -2.62427,-0.77703 -0.04856,-0.34531 -0.93245,-7.43636 -3.33597,-15.58324 -1.41446,-4.79442 -3.55897,-11.21835 -5.85698,-15.46436 z"
         style="fill:url(#linearGradient2815);fill-opacity:1;stroke:none" />
      <path
         d="m 261.27724,405.46438 c 0,0 0.75568,0.98694 1.96419,0.15778 10.42742,-9.47824 27.01202,-22.33222 43.19162,-16.0817 -0.30297,-8.84462 -7.66924,-18.3592 -16.9424,-17.75265 -13.45238,0.87991 -22.59462,19.94661 -28.21341,33.67657 z m -3.99646,6.89425 c -0.14037,0.73244 0.858,1.12057 2.23014,0.17915 4.8822,-5.62153 24.28929,-23.49213 38.68169,-22.37059 8.73132,0.6804 8.73125,5.41771 9.76202,10.83808 0.20063,1.05502 2.28654,0.78907 2.36721,0.00413 2.22434,-21.64387 -10.9217,-33.33232 -21.45043,-32.64365 -15.2738,0.99904 -28.39932,27.34116 -31.59063,43.99288 z"
         style="fill:url(#linearGradient2817);fill-opacity:1;fill-rule:evenodd;stroke:none;display:inline"
         id="path3662"
         sodipodi:nodetypes="cccscccsssss" />
      <path
         sodipodi:nodetypes="ccssssscssssss"
         id="path3622"
         d="m 220.16608,389.77576 c 0,1.88381 9.77114,-0.55755 15.80663,-2.84403 1.21283,-0.54579 1.83365,0.14255 2.01812,0.56316 2.61356,5.95919 5.27034,14.75852 6.65446,20.91087 1.13995,5.067 0.11116,8.04138 1.36378,8.25932 l 1.5757,0.27416 c 2.35235,0.40929 -1.6727,-19.2829 -6.98282,-30.10995 -0.24186,-0.49314 -0.35195,-1.21411 0.34256,-1.71468 2.14884,-1.19817 11.33108,-3.60716 16.8351,-4.52214 2.14071,-0.35586 3.62489,-1.10536 3.64528,-1.50177 0.06537,-1.27066 -0.44469,-1.29349 -1.79589,-1.71948 -1.09045,-0.34379 -11.87291,2.03161 -19.54941,5.55885 -11.31364,5.19845 -19.91351,3.30999 -19.91351,5.78369 z"
         style="fill:url(#linearGradient2819);fill-opacity:1;stroke:none;display:inline" />
      <path
         sodipodi:nodetypes="ccczsssszssssss"
         id="path3626"
         d="m 312.94224,403.66541 c -0.76418,-0.52499 -0.04178,-1.57355 1.34188,-1.57404 7.04893,-1.08624 22.37751,-1.78104 25.49066,-16.33383 0.85882,-6.16748 -2.05419,-11.56809 -6.94906,-15.22445 -4.89488,-3.65636 -9.15147,-4.9181 -13.26588,-5.3379 -5.7818,-0.58993 -12.9999,2.15871 -19.34735,2.2155 -0.93598,0.00837 -0.98533,-2.52593 -0.0625,-2.68257 5.30302,-0.90011 18.16461,-4.03365 26.36726,-6.56938 5.09865,-1.57617 6.75621,-2.11863 8.44947,-3.60083 1.69326,-1.4822 3.8357,1.1888 3.30855,2.43157 -1.22396,2.8855 -10.22203,2.03071 -15.09784,5.11908 l -0.68602,0.43453 c -2.29796,1.45555 10.91222,1.92619 17.28238,10.73371 6.16882,8.52914 4.11506,20.4714 -4.05148,25.29191 -7.05584,4.16489 -19.24518,7.52514 -22.78007,5.0967 z"
         style="fill:url(#linearGradient2821);fill-opacity:1;stroke:none;display:inline" />
      <path
         sodipodi:nodetypes="ccczsssszssssss"
         id="path3684"
         d="m 410.51792,374.86292 c -0.76418,-0.52499 -0.04178,-1.57355 1.34188,-1.57404 7.04893,-1.08624 22.37751,-1.78104 25.49066,-16.33383 0.85882,-6.16748 -2.05419,-11.56809 -6.94906,-15.22445 -4.89488,-3.65636 -9.15147,-4.9181 -13.26588,-5.3379 -5.7818,-0.58993 -12.9999,2.15871 -19.34735,2.2155 -0.93598,0.00837 -0.98533,-2.52593 -0.0625,-2.68257 5.30302,-0.90011 18.16461,-4.03365 26.36726,-6.56938 5.09865,-1.57617 6.75621,-2.11863 8.44947,-3.60083 1.69326,-1.4822 3.8357,1.1888 3.30855,2.43157 -1.22396,2.8855 -10.22203,2.03071 -15.09784,5.11908 l -0.68602,0.43453 c -2.29796,1.45555 10.91222,1.92619 17.28238,10.73371 6.16882,8.52914 4.11506,20.4714 -4.05148,25.29191 -7.05584,4.16489 -19.24518,7.52514 -22.78007,5.0967 z"
         style="fill:url(#linearGradient2823);fill-opacity:1;stroke:none;display:inline" />
      <path
         d="m 345,352.75 c 0.96946,-0.80573 2.38906,-1.97327 3.75,-1.125 1.04655,0.65231 0.68276,1.94952 1.57586,5.35043 0.65873,2.50848 1.4896,5.56205 2.38051,8.62037 1.52622,5.23916 3.34647,10.07996 4.2051,14.22891 0.66354,3.20625 0.67855,5.92386 0.21353,6.17529 -0.89309,0.48288 -1.65098,-0.03433 -3.375,-0.25 -0.75991,-0.31805 -0.49235,-3.98171 -1.5077,-9.22198 -0.91719,-4.73366 -2.70024,-11.50383 -5.62433,-17.63157 -1.69284,-3.54754 -2.04837,-5.78874 -1.61797,-6.14645 z m -3.625,-8.25 c -0.15823,1.02985 0.61313,3.21863 1.75,3 0,0 2.53628,0.06521 3.25,-0.625 0.60817,-0.58814 1.22463,-2.02604 0.625,-2.75 l -1.1143,-1.34535 c -1.75489,-1.64251 -3.71288,0.06158 -4.5107,1.72035 z"
         style="fill:url(#linearGradient2825);fill-opacity:1;stroke:none;display:inline"
         id="path3688" />
      <path
         sodipodi:nodetypes="cszzssszszsszszsssss"
         id="path3691"
         d="m 362.125,360.25 c 0,0 5.20838,-0.07027 14.90647,-3.40159 6.7127,-2.30583 18.19217,-6.54285 19.34353,-5.47341 1.15136,1.06944 1.2107,1.50187 1,3 -0.2107,1.49813 -5.19539,1.53533 -11.20475,2.96216 -3.97547,0.94392 -8.16509,2.8919 -12.40403,3.75984 -4.28723,0.87782 -8.45201,1.78396 -10.76622,2.278 -2.42218,0.51709 2.47049,11.31652 8.375,13.75 5.94951,2.45202 13.57976,1.11315 20.5,-4.125 10.99513,-8.32256 5.47259,-14.7744 8.375,-15.5 l 1,-0.25 c 3.09358,-0.7734 2.06304,7.19807 0.75,9.75 -2.5748,5.0042 -6.91863,8.53623 -13.375,12.25 -6.40166,3.6823 -16.95453,2.08226 -22.375,-1.75 -5.09474,-3.60197 -10.63317,-10.99776 -8.375,-18.625 2.22413,-7.51224 8.22791,-11.82636 12.75,-14.5 5.70518,-3.37313 20.55795,-5.4818 19.75,-2.25 l -0.25,1 c -0.6771,2.70839 -11.45465,-0.72542 -21.375,5.5 -5.53972,3.4764 -8.90141,11.52223 -6.625,11.625 z"
         style="fill:url(#linearGradient2827);fill-opacity:1;stroke:none;display:inline" />
      <g
         id="g3795">
        <path
           style="opacity:0.09090899;fill:url(#linearGradient2829);fill-opacity:1;stroke:none"
           d="m 138.15625,337.34375 c -15.77438,5.26046 -30.80191,12.71555 -44.78125,21.75 -8.257782,5.83166 -17.055457,11.99704 -20.625,21.84375 -1.199584,3.45306 -1.047489,8.16818 2.625,10.0625 9.694863,5.63216 21.161937,6.5568 32.03125,8.5 9.01455,1.55293 18.58963,1.89118 27.1875,4.53125 2.38451,0.60886 0.93798,3.36932 -0.90625,3.53125 -8.76347,2.56833 -19.02825,1.09108 -26.90625,6.0625 -4.21779,3.41312 -1.70945,9.74342 0.35628,13.69329 4.24728,7.65537 9.92526,14.26225 16.26872,20.21296 -5.8628,-8.27368 -12.81196,-16.49503 -15.40625,-26.4375 -0.89933,-2.90707 0.74429,-5.91661 3.84375,-6.25 9.70297,-2.83776 20.49263,-1.3285 29.96875,-4.875 2.8499,-0.96176 1.94304,-4.64716 -0.3125,-5.71875 -8.10244,-4.81662 -17.78355,-5.57782 -26.88542,-7.46787 -10.81062,-2.17837 -22.25908,-2.93628 -32.20833,-7.84463 -4.392224,-2.22316 -3.205963,-8.1676 -1.40625,-11.84375 5.731664,-10.82594 16.649617,-17.71265 26.74327,-24.0976 9.93613,-5.88277 20.50453,-10.5817 30.85048,-15.68365 z m -14.0625,110.8125 c 1.36993,0.72736 1.86174,2.2726 0.27286,0.33583 z"
           id="path3797" />
      </g>
    </g>
    <g
       id="g2661"
       transform="translate(7.4995797,-2.4096652)">
      <rect
         style="opacity:1;fill:url(#linearGradient2831);fill-opacity:1;fill-rule:evenodd;stroke:none"
         id="rect4264"
         width="453.16376"
         height="168.97484"
         x="-25.627075"
         y="85.682579"
         transform="matrix(0.9673628,-0.2533953,0.2533953,0.9673628,9.644973,246.80209)"
         clip-path="url(#clipPath4238)" />
      <g
         transform="translate(-8.1600586,0)"
         id="g3564">
        <g
           id="g2781">
          <path
             sodipodi:nodetypes="cccccccccccccccccccccccccc"
             id="path2692-6"
             d="m 395.84786,470.52859 2.60625,-14.85592 0.40903,-0.008 2.64662,14.86389 -6.73783,0 m 10.56092,7.72337 0,-1.27037 -1.22167,0 -4.56244,-24.76857 1.15773,-0.002 0.007,-1.20209 -7.5794,0 0.0104,1.20363 1.10107,0.00052 -4.70826,24.76878 -1.1984,0 0,1.27038 7.1742,0 0,-1.27038 -1.10915,0 1.02015,-5.16308 6.29401,0 1.14035,5.16308 -1.56281,0 0,1.27038 4.03709,0"
             style="font-size:100.79938507px;font-style:normal;font-variant:normal;font-weight:normal;font-stretch:normal;fill:#3c4c58;fill-opacity:1;stroke:none;display:inline;font-family:Dustismo Roman;-inkscape-font-specification:Dustismo Roman" />
          <path
             sodipodi:nodetypes="ccccccccccccccccccccccccc"
             d="m 379.53022,467.72802 -2.55471,-10.71001 0,20.00842 1.05318,0 0,1.22553 -6.0021,0 0,-1.22553 1.28297,0 0,-24.75943 -0.95744,0 0,-1.22552 4.72396,0 2.45414,10.77501 2.21995,-10.77501 4.64775,0 0,1.22552 -0.95745,0 0,24.75943 1.28298,0 0,1.22553 -6.0021,0 0,-1.22553 1.05318,0 0,-20.00842 z"
             style="font-size:115.57328033px;font-style:normal;font-variant:normal;font-weight:normal;font-stretch:normal;fill:#3c4c58;fill-opacity:1;stroke:none;display:inline;font-family:Dustismo Roman;-inkscape-font-specification:Dustismo Roman"
             id="path2714-5" />
          <path
             d="m 366.28319,462.4689 0,3.69535 -1.13532,0 0,-3.69535 z m -9.02232,1.14844 8.51522,0 0,1.12475 -8.51522,0 z m 4.16668,13.41168 2.2917,0 c 2.45438,0 4.72951,-0.008 4.72951,-6.91811 l 0.99386,0 0.002,8.14105 -14.00612,0 0,-1.22294 0.90203,0 0,-24.60691 -0.93002,0 0,-1.22293 7.02847,0 0,1.22293 -1.01145,0 0,24.60691 m 0,-24.60691 2.2917,0 c 2.45438,0 4.72951,0.008 4.72951,6.91811 l 0.99385,0 0.002,-8.14104 -14.00612,0 0,1.22293 0.90202,0 0,24.60691 -0.93002,0 0,1.22294 7.02847,0 0,-1.22294 -1.01145,0 0,-24.60691 m 0,24.60691 2.2917,0 c 2.45438,0 4.72951,-0.008 4.72951,-6.91811 l 0.99386,0 0.002,8.14105 -14.00612,0 0,-1.22294 0.90202,0 0,-24.60691 -0.93001,0 0,-1.22293 7.02846,0 0,1.22293 -1.01144,0 0,24.60691"
             style="fill:#3c4c58;fill-opacity:1;fill-rule:nonzero;stroke:none"
             id="rect2728-6" />
          <path
             d="m 345.45546,477.01739 7.56987,0 0,1.23457 -7.56987,0 z m 6.20738,0.20687 -5.01348,0.047 -2.0186,-10.26439 4.6685,-1.68741 z m -8.42778,-11.30042 1.37739,0 c 1.5641,0 1.16633,-0.0617 1.16633,-6.57866 0,-6.98652 0.54694,-7.00299 -1.47679,-7.00299 l -1.06693,0.0186 0,13.56308 m -6.21998,11.0998 1.34532,0.0186 0,-24.68145 -1.34532,0 0,-1.22571 7.87787,0 c 1.62126,3e-05 3.59678,0.58194 4.70927,1.74572 1.25044,1.31241 1.26703,4.20492 1.26704,6.44585 0,2.06764 0.0394,4.51105 -1.09887,5.91008 -1.07799,1.3124 -2.95865,1.96859 -4.42469,1.96857 l -2.11064,0 0,9.81837 1.43587,0 0,1.22572 -7.65585,0 0,-1.22572"
             style="fill:#3c4c58;fill-opacity:1;fill-rule:nonzero;stroke:none"
             id="rect3518-9" />
          <path
             d="m 406.71195,451.03621 7.01292,0 0,1.2303 -0.94171,0 -0.0792,7.60408 1.8062,3.87666 5.02153,-11.30272 -1.40397,-0.0251 0,-1.23456 4.59773,0 0,1.23456 -1.38104,0.0266 -5.84291,13.0836 5.92204,11.50212 1.13696,0.005 0,1.19327 -4.22658,0 0,-1.19327 1.45141,0.0124 -7.16625,-13.86538 0.16408,13.83775 0.94171,0 0,1.2303 -7.01292,0 0,-1.2303 1.06504,0 0,-24.75515 -1.06504,0 0,-1.2303"
             style="fill:#3c4c58;fill-opacity:1;fill-rule:nonzero;stroke:none"
             id="rect3567-3"
             sodipodi:nodetypes="ccccccccccccccccccccccccccccc" />
          <path
             id="path3572-7"
             style="fill:#3c4c58;fill-opacity:1;fill-rule:nonzero;stroke:none"
             d="m 435.66815,462.4689 0,3.69535 -1.13531,0 0,-3.69535 z m -9.02232,1.14844 8.51522,0 0,1.12475 -8.51522,0 z m 4.16669,13.41168 2.29169,0 c 2.45439,0 4.72951,-0.008 4.72951,-6.91811 l 0.99386,0 0.002,8.14105 -14.00612,0 0,-1.22294 0.90202,0 0,-24.60691 -0.93002,0 0,-1.22293 7.02847,0 0,1.22293 -1.01145,0 0,24.60691 m 0,-24.60691 2.2917,0 c 2.45438,0 4.72951,0.008 4.72951,6.91811 l 0.99386,0 0.002,-8.14104 -14.00612,0 0,1.22293 0.90202,0 0,24.60691 -0.93001,0 0,1.22294 7.02846,0 0,-1.22294 -1.01145,0 0,-24.60691 m 0,24.60691 2.2917,0 c 2.45438,0 4.72951,-0.008 4.72951,-6.91811 l 0.99386,0 0.002,8.14105 -14.00612,0 0,-1.22294 0.90203,0 0,-24.60691 -0.93002,0 0,-1.22293 7.02846,0 0,1.22293 -1.01144,0 0,24.60691" />
        </g>
        <g
           id="g3561">
          <rect
             ry="10.265935"
             y="445.00854"
             x="329.93036"
             height="38.939754"
             width="116.97681"
             id="rect2789"
             style="opacity:1;fill:none;stroke:#3c4c58;stroke-width:3.40199995;stroke-miterlimit:4;stroke-opacity:1;stroke-dasharray:none" />
        </g>
      </g>
    </g>
  </g>
</svg>
